<svg width="152" height="227" viewBox="0 0 152 227" fill="none" xmlns="http://www.w3.org/2000/svg">
<path d="M152 0.0699463H0.779785V226.97H152V0.0699463Z" fill="#FEFEFE"/>
<path fill-rule="evenodd" clip-rule="evenodd" d="M36.1401 134.79H43.4601V142.92H41.2201V136.79H38.3801V142.92H36.1401V134.79Z" fill="#476F55"/>
<path fill-rule="evenodd" clip-rule="evenodd" d="M50.2401 139.7L49.3401 137.4L48.4201 139.7H50.2401ZM48.2801 134.74H50.4401L53.8901 142.92H51.4801L50.9001 141.46H47.7601L47.1801 142.92H44.8301L48.2801 134.74Z" fill="#476F55"/>
<path fill-rule="evenodd" clip-rule="evenodd" d="M55.25 134.79H57.62L59.56 137.94L61.49 134.79H63.86V142.92H61.63V138.25L59.56 141.43H59.51L57.45 138.26V142.92H55.25V134.79Z" fill="#476F55"/>
<path fill-rule="evenodd" clip-rule="evenodd" d="M69.0601 136.73C68.3101 136.73 67.8401 137.07 67.8401 137.72V137.73C67.8401 138.35 68.29 138.69 69.04 138.69H70.5201V136.73H69.0601ZM72.7701 142.92H70.5201V140.46H69.55L67.91 142.92H65.3101L67.2601 140.09C66.1601 139.65 65.5801 138.74 65.5801 137.65V137.64C65.5801 135.76 66.99 134.8 69.11 134.8H72.7701V142.92Z" fill="#476F55"/>
<path fill-rule="evenodd" clip-rule="evenodd" d="M76.7603 136.77H74.3403V134.79H81.4303V136.77H79.0103V142.92H76.7603V136.77Z" fill="#476F55"/>
<path fill-rule="evenodd" clip-rule="evenodd" d="M86.31 141.05C87.1 141.05 87.61 140.69 87.61 140.03V140.01C87.61 139.36 87.15 139.01 86.32 139.01H85.24V141.05H86.31ZM83 134.79H85.25V137.22H86.44C88.49 137.22 89.84 138.16 89.84 140.01V140.03C89.84 141.85 88.52 142.92 86.37 142.92H83V134.79Z" fill="#476F55"/>
<path fill-rule="evenodd" clip-rule="evenodd" d="M36.1401 148.33H43.4601V156.46H41.2201V150.33H38.3801V156.46H36.1401V148.33Z" fill="#476F55"/>
<path fill-rule="evenodd" clip-rule="evenodd" d="M51.63 152.42V152.4C51.63 151.22 50.8 150.21 49.56 150.21C48.32 150.21 47.5 151.21 47.5 152.38V152.4C47.5 153.57 48.34 154.59 49.58 154.59C50.81 154.59 51.63 153.59 51.63 152.42ZM45.21 152.42V152.4C45.21 150.07 47.08 148.18 49.58 148.18C52.08 148.18 53.93 150.05 53.93 152.38V152.4C53.93 154.73 52.06 156.62 49.56 156.62C47.06 156.62 45.21 154.75 45.21 152.42Z" fill="#476F55"/>
<path fill-rule="evenodd" clip-rule="evenodd" d="M55.6699 148.33H57.9099L57.8999 151.4H58.3099L60.7599 148.33H63.4399L60.0799 152.27L63.6099 156.46H60.8299L58.3099 153.35H57.8999L57.9099 156.46H55.6699V148.33Z" fill="#476F55"/>
<path fill-rule="evenodd" clip-rule="evenodd" d="M70.2901 152.42V152.4C70.2901 151.22 69.4601 150.21 68.2201 150.21C66.9801 150.21 66.1601 151.21 66.1601 152.38V152.4C66.1601 153.57 67.0101 154.59 68.2401 154.59C69.4701 154.59 70.2901 153.59 70.2901 152.42ZM63.8701 152.42V152.4C63.8701 150.07 65.7401 148.18 68.2401 148.18C70.7401 148.18 72.5901 150.05 72.5901 152.38V152.4C72.5901 154.73 70.7201 156.62 68.2201 156.62C65.7201 156.62 63.8701 154.75 63.8701 152.42Z" fill="#476F55"/>
<path fill-rule="evenodd" clip-rule="evenodd" d="M81.9999 156.46H79.5099L77.5599 151.38L75.5999 156.46H73.1699L76.5499 148.27H78.6099L81.9999 156.46Z" fill="#476F55"/>
<path fill-rule="evenodd" clip-rule="evenodd" d="M83.3701 148.33H89.8801V150.24H85.5901V151.48H89.4801V153.25H85.5901V154.54H89.9401V156.46H83.3701V148.33Z" fill="#476F55"/>
<path fill-rule="evenodd" clip-rule="evenodd" d="M91.6699 148.33H93.9199V151.37H96.7999V148.33H99.0499V156.46H96.7999V153.37H93.9199V156.46H91.6699V148.33Z" fill="#476F55"/>
<path fill-rule="evenodd" clip-rule="evenodd" d="M106.46 156.46V151.83L103.01 156.46H101.06V148.33H103.3V152.79L106.63 148.33H108.71V156.46H106.46Z" fill="#476F55"/>
<path fill-rule="evenodd" clip-rule="evenodd" d="M112.27 146.05H113.6C113.74 146.39 114.02 146.57 114.55 146.57C115.09 146.57 115.36 146.38 115.51 146.05H116.83C116.68 147.21 115.83 147.8 114.55 147.8C113.27 147.8 112.42 147.21 112.27 146.05ZM116.12 156.46V151.83L112.67 156.46H110.71V148.34H112.95V152.8L116.28 148.34H118.35V156.46H116.12Z" fill="#476F55"/>
<path fill-rule="evenodd" clip-rule="evenodd" d="M37.9803 167.12C38.8003 167.12 39.4002 166.77 39.4002 166.11V166.09C39.4002 165.4 38.8203 165.11 38.0103 165.11H36.3402V167.12H37.9803ZM35.7402 162.25H39.5602V162.81H36.3503V164.56H38.0502C39.2202 164.56 40.0202 165.06 40.0202 166.06V166.08C40.0202 167.16 39.1002 167.68 37.9702 167.68H35.7502V162.25H35.7402Z" fill="#476F55"/>
<path fill-rule="evenodd" clip-rule="evenodd" d="M45.4603 167.52H44.7903L43.3603 164.22L41.9303 167.52H41.2803L43.0903 163.48H43.6403L45.4603 167.52Z" fill="#476F55"/>
<path fill-rule="evenodd" clip-rule="evenodd" d="M49.2403 166.04V165.65C48.9503 165.57 48.5503 165.48 48.0603 165.48C47.3103 165.48 46.9003 165.8 46.9003 166.31V166.33C46.9003 166.83 47.3603 167.13 47.9003 167.13C48.6403 167.13 49.2403 166.68 49.2403 166.04ZM46.3003 166.35V166.33C46.3003 165.49 46.9903 165.04 48.0103 165.04C48.5203 165.04 48.8803 165.11 49.2403 165.21V165.07C49.2403 164.35 48.8003 163.98 48.0503 163.98C47.5803 163.98 47.2103 164.1 46.8403 164.27L46.6603 163.78C47.1003 163.58 47.5303 163.45 48.1103 163.45C48.6703 163.45 49.1103 163.6 49.4003 163.89C49.6703 164.16 49.8103 164.55 49.8103 165.06V167.51H49.2403V166.91C48.9603 167.27 48.5003 167.6 47.8003 167.6C47.0503 167.6 46.3003 167.17 46.3003 166.35Z" fill="#476F55"/>
<path fill-rule="evenodd" clip-rule="evenodd" d="M51.29 163.51H54.2V164.05H51.89V167.52H51.29V163.51Z" fill="#476F55"/>
<path fill-rule="evenodd" clip-rule="evenodd" d="M58.34 165.53V165.52C58.34 164.66 57.7 163.95 56.86 163.95C56 163.95 55.4 164.66 55.4 165.5V165.52C55.4 166.38 56.03 167.08 56.88 167.08C57.74 167.08 58.34 166.38 58.34 165.53ZM54.79 165.53V165.52C54.79 164.39 55.67 163.43 56.88 163.43C58.08 163.43 58.96 164.37 58.96 165.51V165.53C58.96 166.66 58.07 167.62 56.87 167.62C55.66 167.61 54.79 166.66 54.79 165.53Z" fill="#476F55"/>
<path fill-rule="evenodd" clip-rule="evenodd" d="M61.16 164.05H59.5601V163.51H63.36V164.05H61.7501V167.52H61.16V164.05Z" fill="#476F55"/>
<path fill-rule="evenodd" clip-rule="evenodd" d="M65.0402 167.04H66.4502C67.0502 167.04 67.3802 166.79 67.3802 166.41C67.3802 165.98 67.0402 165.73 66.3902 165.73H65.0402V167.04ZM66.3502 165.26C66.9202 165.26 67.2202 164.99 67.2202 164.59C67.2202 164.22 66.9302 163.99 66.4002 163.99H65.0402V165.26H66.3502ZM64.4602 163.51H66.4802C67.3102 163.51 67.8302 163.9 67.8302 164.54C67.8302 165.04 67.5402 165.31 67.1102 165.46C67.6302 165.6 67.9802 165.89 67.9802 166.43C67.9802 167.14 67.3902 167.51 66.4702 167.51H64.4502V163.51H64.4602Z" fill="#476F55"/>
<path fill-rule="evenodd" clip-rule="evenodd" d="M72.5901 165.53V165.52C72.5901 164.66 71.95 163.95 71.11 163.95C70.25 163.95 69.6501 164.66 69.6501 165.5V165.52C69.6501 166.38 70.2801 167.08 71.1301 167.08C71.9901 167.08 72.5901 166.38 72.5901 165.53ZM69.04 165.53V165.52C69.04 164.39 69.9201 163.43 71.1201 163.43C72.3201 163.43 73.2001 164.37 73.2001 165.51V165.53C73.2001 166.66 72.31 167.62 71.1 167.62C69.91 167.61 69.04 166.66 69.04 165.53Z" fill="#476F55"/>
<path fill-rule="evenodd" clip-rule="evenodd" d="M77.92 165.53V165.52C77.92 164.57 77.27 163.97 76.51 163.97C75.77 163.97 75.07 164.6 75.07 165.51V165.53C75.07 166.46 75.77 167.08 76.51 167.08C77.29 167.07 77.92 166.49 77.92 165.53ZM74.5 163.51H75.09V164.31C75.42 163.83 75.89 163.42 76.62 163.42C77.58 163.42 78.53 164.18 78.53 165.5V165.52C78.53 166.83 77.59 167.6 76.62 167.6C75.88 167.6 75.4 167.2 75.09 166.75V168.76H74.5V163.51Z" fill="#476F55"/>
<path fill-rule="evenodd" clip-rule="evenodd" d="M79.8501 163.51H80.4401V166.62L82.8701 163.51H83.4401V167.52H82.8501V164.4L80.4001 167.52H79.8501V163.51Z" fill="#476F55"/>
<path fill-rule="evenodd" clip-rule="evenodd" d="M86.1503 164.05H84.5503V163.51H88.3503V164.05H86.7503V167.52H86.1503V164.05Z" fill="#476F55"/>
<path fill-rule="evenodd" clip-rule="evenodd" d="M92.1299 165.29C92.0699 164.56 91.6499 163.93 90.8599 163.93C90.1599 163.93 89.6399 164.51 89.5599 165.29H92.1299ZM88.96 165.53V165.51C88.96 164.35 89.7699 163.43 90.8799 163.43C92.0599 163.43 92.7399 164.37 92.7399 165.55C92.7399 165.63 92.7399 165.67 92.7299 165.74H89.5599C89.6499 166.61 90.2599 167.1 90.9699 167.1C91.5199 167.1 91.8999 166.88 92.2299 166.53L92.5999 166.86C92.1999 167.31 91.71 167.61 90.95 167.61C89.85 167.61 88.96 166.76 88.96 165.53Z" fill="#476F55"/>
<path fill-rule="evenodd" clip-rule="evenodd" d="M97.65 167.52H96.99L95.56 164.22L94.12 167.52H93.48L95.29 163.48H95.84L97.65 167.52Z" fill="#476F55"/>
<path fill-rule="evenodd" clip-rule="evenodd" d="M100.59 167.01C101.26 167.01 101.59 166.71 101.59 166.2C101.59 165.71 101.26 165.39 100.6 165.39H99.4001V167H100.59V167.01ZM98.8101 163.51H99.4001V164.89H100.62C101.59 164.89 102.19 165.39 102.19 166.19V166.21C102.19 166.99 101.61 167.52 100.6 167.52H98.8101V163.51Z" fill="#476F55"/>
<path fill-rule="evenodd" clip-rule="evenodd" d="M103.38 163.51H103.97V165.22H106.36V163.51H106.95V167.52H106.36V165.77H103.97V167.52H103.38V163.51Z" fill="#476F55"/>
<path fill-rule="evenodd" clip-rule="evenodd" d="M112.62 163.51H113.21V167.52H112.62V163.51ZM109.1 167.01H110.29C110.96 167.01 111.29 166.71 111.29 166.2C111.29 165.71 110.96 165.39 110.3 165.39H109.1V167.01ZM109.1 164.89H110.32C111.29 164.89 111.89 165.39 111.89 166.19V166.21C111.89 166.99 111.31 167.52 110.3 167.52H108.51V163.51H109.1V164.89Z" fill="#476F55"/>
<path fill-rule="evenodd" clip-rule="evenodd" d="M115.42 161.95H115.85C115.94 162.24 116.17 162.44 116.56 162.44C116.95 162.44 117.18 162.24 117.27 161.95H117.7C117.66 162.56 117.2 162.92 116.56 162.92C115.92 162.92 115.46 162.56 115.42 161.95ZM114.77 163.51H115.36V166.62L117.79 163.51H118.36V167.52H117.77V164.41L115.32 167.52H114.76V163.51H114.77Z" fill="#476F55"/>
<path fill-rule="evenodd" clip-rule="evenodd" d="M38.4601 173.47V176.47C39.7401 176.45 40.3601 175.84 40.3601 174.97C40.3601 174.12 39.7301 173.5 38.4601 173.47ZM37.8901 176.47V173.47C36.6201 173.49 36.0001 174.11 36.0001 174.97C36.0001 175.84 36.6201 176.45 37.8901 176.47ZM37.8801 178.22V177C36.2501 176.97 35.3901 176.11 35.3901 174.98C35.3901 173.86 36.2601 172.99 37.8801 172.95V171.32H38.4701V172.95C40.0901 172.99 40.9701 173.84 40.9701 174.96C40.9701 176.09 40.0901 176.97 38.4701 177V178.22H37.8801Z" fill="#476F55"/>
<path fill-rule="evenodd" clip-rule="evenodd" d="M45.9802 174.84V174.83C45.9802 173.97 45.3402 173.26 44.5002 173.26C43.6402 173.26 43.0402 173.97 43.0402 174.81V174.83C43.0402 175.69 43.6702 176.39 44.5102 176.39C45.3802 176.38 45.9802 175.68 45.9802 174.84ZM42.4302 174.84V174.83C42.4302 173.7 43.3102 172.74 44.5102 172.74C45.7102 172.74 46.5902 173.69 46.5902 174.82V174.84C46.5902 175.97 45.7002 176.93 44.5002 176.93C43.3002 176.91 42.4302 175.97 42.4302 174.84Z" fill="#476F55"/>
<path fill-rule="evenodd" clip-rule="evenodd" d="M47.8901 172.81H48.4801V174.53H50.8701V172.81H51.4501V176.82H50.8701V175.07H48.4801V176.82H47.8901V172.81Z" fill="#476F55"/>
<path fill-rule="evenodd" clip-rule="evenodd" d="M53.6103 176.29H56.1003L54.8603 173.38L53.6103 176.29ZM56.7403 176.28H57.2003V177.88H56.6603V176.82H53.0903V177.88H52.5503V176.28H53.0003L54.5603 172.79H55.1803L56.7403 176.28Z" fill="#476F55"/>
<path fill-rule="evenodd" clip-rule="evenodd" d="M118.38 177H61.6899L61.7 172.25H118.38V177Z" fill="#476F55"/>
<path fill-rule="evenodd" clip-rule="evenodd" d="M124.92 102.88C123.53 101.9 120.84 100.03 119.22 98.9398C118.9 98.7198 118.92 98.2399 119.26 98.0599C120.37 97.4699 121.76 96.7698 123.29 96.1498C123.59 96.0298 123.71 95.6598 123.53 95.3898C121.09 91.5298 123.04 91.8898 123.67 89.1598C123.72 88.9398 123.61 88.71 123.41 88.6C122.43 88.09 119.66 86.7598 118.38 86.1498C118.05 85.9898 117.99 85.5599 118.25 85.3099L121.07 82.6598C121.36 82.3798 121.24 81.8899 120.85 81.7899L114.63 80.1298C114.22 80.0198 114.11 79.4899 114.45 79.2299L118.89 75.7699C119.24 75.4999 119.11 74.95 118.68 74.86L115.2 74.1298C114.97 74.0798 114.81 73.8898 114.79 73.6598L114.38 67.2999C114.36 66.9799 114.06 66.76 113.75 66.83L109.72 67.7599C109.58 67.7899 109.43 67.7598 109.31 67.6798L104.15 63.9498C104.03 63.8698 103.89 63.84 103.75 63.86L98.1202 64.9398C97.8202 64.9998 97.5303 64.7798 97.5103 64.4698L96.7603 52.5299C96.7402 52.2499 96.5102 52.0399 96.2402 52.0499L86.3002 53.4999C86.0202 53.5399 85.7602 53.65 85.5502 53.83L81.2202 57.2799C81.0002 57.5299 80.6102 57.5099 80.4202 57.2299L77.0303 53.5699C76.8303 53.3499 76.5703 53.2 76.2803 53.12L68.3903 51.0199H68.2302C67.9802 51.0599 67.7902 51.2999 67.8102 51.5699L68.4802 59.86C68.5102 60.21 68.1902 60.4898 67.8502 60.3998L60.2703 58.5599C59.8903 58.4699 59.5503 58.8198 59.6503 59.1898L60.7202 63.2198C60.8002 63.5298 60.5903 63.83 60.2703 63.86L53.7702 64.4799C53.4602 64.5099 53.2402 64.81 53.3202 65.12C53.6702 66.52 54.7502 70.5099 55.0402 71.0299C54.9302 70.8499 54.9502 70.51 55.1302 70.33L58.1602 67.35C58.3502 67.17 58.6402 67.1299 58.8602 67.2699L62.7902 69.7599C62.9002 69.8299 63.0202 69.84 63.1302 69.84C63.2402 69.83 63.3603 69.7999 63.4503 69.7299C63.5103 69.6799 63.5602 69.6199 63.6002 69.5499L65.5602 65.84C65.5802 65.81 65.6002 65.7899 65.6202 65.7699C65.7402 65.6099 65.9202 65.5199 66.1102 65.5399C66.1802 65.5399 66.2602 65.57 66.3202 65.6L73.6802 69.2399C73.9902 69.3999 74.3702 69.2298 74.4802 68.8998L75.5303 65.59C75.6803 65.12 76.3102 65.0498 76.5602 65.4698L79.5602 70.4799C79.8102 70.8899 80.4103 70.8398 80.5803 70.3998L82.5402 65.4198C82.5702 65.3398 82.6202 65.2598 82.6802 65.2098C82.8002 65.0998 82.9702 65.0399 83.1302 65.0599C83.2102 65.0699 83.2902 65.0998 83.3702 65.1498L87.4003 67.7198C87.5803 67.8398 87.8002 67.8299 87.9702 67.7299C88.0502 67.6899 88.1202 67.6299 88.1802 67.5499L88.2103 67.4999L90.6002 63.86C90.7002 63.7 90.8603 63.62 91.0203 63.6C91.1803 63.59 91.3403 63.6399 91.4603 63.7499C91.5403 63.8199 91.6002 63.9199 91.6302 64.0499L92.8903 69.7999C92.9103 69.8699 92.9302 69.9399 92.9802 69.9999C92.9802 69.9999 92.9902 69.9999 92.9902 70.0099C93.0302 70.0699 93.0803 70.1198 93.1403 70.1598L99.3502 74.2198C99.5802 74.3698 99.6603 74.6498 99.5803 74.8898C99.5703 74.9298 99.5303 74.9599 99.5103 74.9899C99.4902 75.0299 99.4702 75.07 99.4402 75.11L94.8602 79.4899C94.7702 79.5799 94.7102 79.6799 94.6902 79.7899C94.6302 80.1199 94.8602 80.4698 95.2502 80.4698L99.0203 80.5099C99.0403 80.5099 99.0603 80.5099 99.0903 80.5099L108.15 81.6498C108.33 81.6698 108.48 81.7798 108.57 81.9298L112.04 87.9698C112.24 88.3198 112.02 88.7399 111.64 88.8099C111.62 88.8099 111.61 88.82 111.6 88.83L111.24 88.86L106.42 89.2999C106.22 89.3199 106.07 89.44 105.99 89.59C105.94 89.68 105.91 89.7798 105.91 89.8798C105.91 89.9798 105.94 90.0898 106 90.1898L108.83 94.4799C108.93 94.6399 108.94 94.8199 108.89 94.9799C108.82 95.1699 108.67 95.33 108.45 95.36L102.61 96.33C102.55 96.34 102.51 96.3798 102.45 96.4098C102.4 96.4398 102.34 96.4499 102.3 96.4899C102.23 96.5499 102.2 96.6399 102.17 96.7299C102.16 96.7499 102.15 96.7599 102.15 96.7799C102.1 96.9899 102.17 97.2298 102.38 97.3798L105.08 99.2299C105.21 99.3199 105.27 99.45 105.3 99.59C105.33 99.73 105.32 99.8699 105.25 99.9999C105.2 100.08 105.13 100.15 105.03 100.2L101.52 102.1C101.16 102.29 101.14 102.75 101.37 103C101.45 103.08 101.56 103.15 101.69 103.17L106.12 103.95C106.5 103.99 106.83 104.04 107.09 104.08C107.13 104.09 107.16 104.12 107.2 104.14L107.39 104.17C107.48 104.19 107.56 104.22 107.64 104.28L113.62 108.83C113.81 108.97 113.89 109.22 113.82 109.45L108.75 114.17C108.66 114.46 108.38 114.62 108.1 114.56L111.85 115.62C112.03 115.67 112.21 115.62 112.34 115.5L121.06 110.66C121.26 110.47 121.27 110.15 121.09 109.94L117.98 106.43C117.73 106.14 117.86 105.69 118.23 105.59L124.76 103.81C125 103.74 125.14 103.53 125.14 103.31C125.15 103.14 125.08 102.98 124.92 102.88Z" fill="#DF2726"/>
<path fill-rule="evenodd" clip-rule="evenodd" d="M108.76 114.15L113.83 109.43C113.9 109.2 113.82 108.95 113.63 108.81L107.65 104.26C107.58 104.21 107.49 104.17 107.4 104.15L107.21 104.12L106.13 103.93L101.7 103.15C101.57 103.13 101.46 103.07 101.38 102.98C101.14 102.73 101.17 102.28 101.53 102.08L105.04 100.18C105.13 100.13 105.21 100.06 105.26 99.9799C105.33 99.8599 105.34 99.71 105.31 99.57C105.28 99.43 105.22 99.2999 105.09 99.2099L102.39 97.36C102.18 97.22 102.11 96.9799 102.16 96.7599C102.16 96.7399 102.18 96.7299 102.18 96.7099C102.21 96.6199 102.24 96.5399 102.31 96.4699C102.35 96.4299 102.41 96.4198 102.46 96.3898C102.51 96.3598 102.55 96.32 102.62 96.31L108.46 95.34C108.68 95.3 108.83 95.1499 108.9 94.9599C108.95 94.7999 108.95 94.6199 108.84 94.4599L106.01 90.1698C105.95 90.0698 105.92 89.97 105.92 89.86C105.92 89.76 105.95 89.66 106 89.57C106.09 89.42 106.23 89.2999 106.43 89.2799L111.25 88.84L111.61 88.81C111.63 88.81 111.64 88.7999 111.65 88.7899C112.03 88.7199 112.25 88.2999 112.05 87.9499L108.58 81.9098C108.49 81.7598 108.34 81.6498 108.16 81.6298L99.1003 80.4899C99.0803 80.4899 99.0604 80.4899 99.0304 80.4899L95.2603 80.4599C94.8803 80.4599 94.6403 80.0999 94.7003 79.7799C94.7203 79.6699 94.7703 79.5599 94.8703 79.4799L99.4503 75.1C99.4903 75.06 99.5004 75.0199 99.5204 74.9799C99.5404 74.9499 99.5704 74.9198 99.5904 74.8798C99.6804 74.6398 99.6003 74.3599 99.3603 74.2099L93.1504 70.1498C93.0904 70.1098 93.0403 70.0599 93.0003 69.9999C93.0003 69.9999 93.0003 69.9999 92.9903 69.9899C92.9503 69.9299 92.9204 69.8599 92.9004 69.7899L91.6404 64.0399C91.6104 63.9199 91.5503 63.8199 91.4703 63.7399C91.3503 63.6299 91.1904 63.58 91.0304 63.59C90.8704 63.61 90.7103 63.69 90.6103 63.85L88.2203 67.4899L88.1903 67.5399C88.1403 67.6199 88.0603 67.6799 87.9803 67.7199C87.8003 67.8199 87.5903 67.8199 87.4103 67.7099L83.3803 65.1398C83.3003 65.0898 83.2204 65.06 83.1404 65.05C82.9704 65.03 82.8103 65.0899 82.6903 65.1999C82.6303 65.2599 82.5803 65.3298 82.5503 65.4098L80.5904 70.3898C80.4204 70.8298 79.8203 70.8799 79.5703 70.4699L76.5603 65.4599C76.3103 65.0399 75.6804 65.11 75.5304 65.58L74.4803 68.8898C74.3703 69.2198 74.0003 69.3799 73.6803 69.2299L66.3203 65.59C66.2503 65.56 66.1803 65.5399 66.1103 65.5299C65.9203 65.5199 65.7403 65.6099 65.6203 65.7599C65.6003 65.7799 65.5803 65.8 65.5603 65.83L63.6003 69.5399C63.5603 69.6199 63.5103 69.6799 63.4503 69.7199C63.3603 69.7899 63.2503 69.82 63.1303 69.83C63.0203 69.84 62.9003 69.8199 62.7903 69.7499L58.8603 67.2599C58.6403 67.1199 58.3403 67.15 58.1603 67.34L55.1303 70.32C54.9503 70.5 54.9303 70.8399 55.0403 71.0199C55.7103 72.0899 57.6604 75.2998 59.4004 78.8898C59.6004 79.3098 60.0703 80.73 60.1103 80.83C60.1003 80.81 60.1004 80.7799 60.0904 80.7499C60.0604 80.6199 60.0903 80.4798 60.1703 80.3798C60.2403 80.2898 60.3503 80.2199 60.4903 80.2199L62.4303 80.1898C62.6403 80.1898 62.8303 80.34 62.8603 80.55L63.9503 87.9799C64.0003 88.2799 64.3304 88.4399 64.5904 88.2799L69.9103 85.09C70.2203 84.91 70.6003 85.1599 70.5503 85.5199L69.7403 91.1498C69.7003 91.4098 69.9003 91.6298 70.1603 91.6398L76.2303 91.6898C76.4603 91.6898 76.6504 91.88 76.6504 92.11L76.7003 98.1898C76.7003 98.4498 76.9303 98.65 77.1903 98.61L82.8003 97.8C83.1503 97.75 83.4103 98.1298 83.2303 98.4398L80.0403 103.78C79.8803 104.04 80.0404 104.38 80.3404 104.42L87.7503 105.52C87.9603 105.55 88.1203 105.74 88.1103 105.95L88.0804 107.89C88.0704 108.16 87.8203 108.35 87.5503 108.29C87.5503 108.29 104.42 113.59 108.08 114.55C108.09 114.55 108.1 114.55 108.1 114.55C108.39 114.6 108.68 114.43 108.76 114.15Z" fill="#9D1B2E"/>
<path fill-rule="evenodd" clip-rule="evenodd" d="M47.3702 124.66L58.2102 113.79C61.0702 115.06 64.9002 114.25 70.3102 111.31C76.2002 108.12 81.0202 106.73 87.5502 108.28C87.8102 108.34 88.0702 108.15 88.0802 107.88L88.1102 105.94C88.1102 105.73 87.9602 105.54 87.7502 105.51L80.3402 104.41C80.0402 104.37 79.8802 104.03 80.0402 103.77L83.2302 98.4298C83.4102 98.1198 83.1602 97.7399 82.8002 97.7899L77.1902 98.6C76.9302 98.64 76.7102 98.4398 76.7002 98.1798L76.6502 92.1C76.6502 91.87 76.4602 91.6798 76.2302 91.6798L70.1602 91.6298C69.9002 91.6298 69.7102 91.3998 69.7402 91.1398L70.5502 85.5099C70.6002 85.1599 70.2202 84.9 69.9102 85.08L64.5902 88.2699C64.3302 88.4299 64.0002 88.2698 63.9502 87.9698L62.8602 80.5399C62.8302 80.3299 62.6502 80.1798 62.4302 80.1798L60.4902 80.2098C60.3602 80.2098 60.2502 80.28 60.1702 80.37C60.0902 80.47 60.0502 80.5999 60.0902 80.7399C60.1002 80.7699 60.1002 80.7899 60.1102 80.8199C61.6302 87.3299 60.2402 92.1499 57.0702 98.0299C54.0302 103.68 53.2702 107.61 54.7602 110.51L35.9302 129.39H118.37V124.64H47.3702V124.66Z" fill="#476F55"/>
</svg>
