<svg width="95" height="151" viewBox="0 0 95 151" fill="none" xmlns="http://www.w3.org/2000/svg">
<path d="M94.0202 0.699829H0.930176V150.41H94.0202V0.699829Z" fill="#FEFEFE"/>
<path fill-rule="evenodd" clip-rule="evenodd" d="M18.25 77.7699H22.85V82.8798H21.44V79.0299H19.66V82.8798H18.25V77.7699Z" fill="#476F55"/>
<path fill-rule="evenodd" clip-rule="evenodd" d="M27.1202 80.86L26.5502 79.4198L25.9702 80.86H27.1202ZM25.8802 77.7399H27.2402L29.4102 82.8798H27.8902L27.5302 81.9598H25.5602L25.2002 82.8798H23.7202L25.8802 77.7399Z" fill="#476F55"/>
<path fill-rule="evenodd" clip-rule="evenodd" d="M30.2603 77.7699H31.7503L32.9703 79.7499L34.1803 77.7699H35.6803V82.8798H34.2703V79.9498L32.9703 81.9498H32.9403L31.6503 79.9498V82.8798H30.2603V77.7699Z" fill="#476F55"/>
<path fill-rule="evenodd" clip-rule="evenodd" d="M38.9398 78.9899C38.4698 78.9899 38.1798 79.2 38.1798 79.61V79.62C38.1798 80.01 38.4598 80.2299 38.9398 80.2299H39.8698V78.9999H38.9398V78.9899ZM41.2798 82.8798H39.8698V81.33H39.2598L38.2298 82.8798H36.5898L37.8198 81.1C37.1298 80.82 36.7698 80.2499 36.7698 79.5699V79.5599C36.7698 78.3799 37.6598 77.7699 38.9898 77.7699H41.2898V82.8798H41.2798Z" fill="#476F55"/>
<path fill-rule="evenodd" clip-rule="evenodd" d="M43.7803 79.0099H42.2603V77.7699H46.7203V79.0099H45.2003V82.8798H43.7803V79.0099Z" fill="#476F55"/>
<path fill-rule="evenodd" clip-rule="evenodd" d="M49.7802 81.6998C50.2802 81.6998 50.6002 81.4699 50.6002 81.0599V81.0399C50.6002 80.6299 50.3102 80.4098 49.7902 80.4098H49.1102V81.6898H49.7802V81.6998ZM47.7002 77.7699H49.1102V79.2999H49.8602C51.1502 79.2999 52.0002 79.8899 52.0002 81.0499V81.0699C52.0002 82.2199 51.1702 82.8898 49.8202 82.8898H47.7002V77.7699Z" fill="#476F55"/>
<path fill-rule="evenodd" clip-rule="evenodd" d="M18.25 86.2799H22.85V91.3898H21.44V87.5399H19.66V91.3898H18.25V86.2799Z" fill="#476F55"/>
<path fill-rule="evenodd" clip-rule="evenodd" d="M27.9902 88.85V88.84C27.9902 88.1 27.4702 87.4598 26.6902 87.4598C25.9102 87.4598 25.3902 88.0899 25.3902 88.8199V88.84C25.3902 89.58 25.9202 90.2198 26.7002 90.2198C27.4702 90.2098 27.9902 89.59 27.9902 88.85ZM23.9502 88.85V88.84C23.9502 87.37 25.1302 86.1798 26.7002 86.1798C28.2702 86.1798 29.4402 87.3499 29.4402 88.8199V88.84C29.4402 90.31 28.2602 91.4899 26.6902 91.4899C25.1102 91.4899 23.9502 90.32 23.9502 88.85Z" fill="#476F55"/>
<path fill-rule="evenodd" clip-rule="evenodd" d="M30.5298 86.2799H31.9398L31.9298 88.2098H32.1798L33.7298 86.2799H35.4098L33.2998 88.7499L35.5198 91.3898H33.7698L32.1798 89.4298H31.9298L31.9398 91.3898H30.5298V86.2799Z" fill="#476F55"/>
<path fill-rule="evenodd" clip-rule="evenodd" d="M39.7202 88.85V88.84C39.7202 88.1 39.2002 87.4598 38.4202 87.4598C37.6402 87.4598 37.1202 88.0899 37.1202 88.8199V88.84C37.1202 89.58 37.6502 90.2198 38.4302 90.2198C39.2002 90.2098 39.7202 89.59 39.7202 88.85ZM35.6802 88.85V88.84C35.6802 87.37 36.8602 86.1798 38.4302 86.1798C40.0002 86.1798 41.1702 87.3499 41.1702 88.8199V88.84C41.1702 90.31 39.9902 91.4899 38.4202 91.4899C36.8502 91.4899 35.6802 90.32 35.6802 88.85Z" fill="#476F55"/>
<path fill-rule="evenodd" clip-rule="evenodd" d="M47.0798 91.3898H45.5098L44.2798 88.1998L43.0598 91.3898H41.5298L43.6498 86.2399H44.9498L47.0798 91.3898Z" fill="#476F55"/>
<path fill-rule="evenodd" clip-rule="evenodd" d="M47.9399 86.2799H52.0299V87.4799H49.3299V88.2599H51.7799V89.3798H49.3299V90.1798H52.0699V91.3898H47.9399V86.2799Z" fill="#476F55"/>
<path fill-rule="evenodd" clip-rule="evenodd" d="M53.1602 86.2799H54.5702V88.1898H56.3801V86.2799H57.7902V91.3898H56.3801V89.4498H54.5702V91.3898H53.1602V86.2799Z" fill="#476F55"/>
<path fill-rule="evenodd" clip-rule="evenodd" d="M62.4501 91.3898V88.4799L60.2901 91.3898H59.0601V86.2799H60.4701V89.08L62.5601 86.2799H63.8601V91.3898H62.4501Z" fill="#476F55"/>
<path fill-rule="evenodd" clip-rule="evenodd" d="M66.0999 84.84H66.9399C67.0299 85.05 67.1999 85.1698 67.5399 85.1698C67.8799 85.1698 68.0499 85.05 68.1399 84.84H68.9699C68.8799 85.57 68.3399 85.9398 67.5399 85.9398C66.7399 85.9498 66.1999 85.57 66.0999 84.84ZM68.5299 91.3898V88.4799L66.3599 91.3898H65.1299V86.2799H66.5399V89.08L68.6399 86.2799H69.9399V91.3898H68.5299Z" fill="#476F55"/>
<path fill-rule="evenodd" clip-rule="evenodd" d="M19.41 98.09C19.92 98.09 20.3 97.8698 20.3 97.4498V97.4398C20.3 97.0098 19.94 96.8199 19.42 96.8199H18.37V98.09H19.41ZM18 95.0299H20.4V95.3798H18.38V96.4799H19.45C20.18 96.4799 20.69 96.7898 20.69 97.4198V97.4298C20.69 98.1098 20.11 98.4298 19.4 98.4298H18V95.0299Z" fill="#476F55"/>
<path fill-rule="evenodd" clip-rule="evenodd" d="M24.11 98.34H23.69L22.79 96.2699L21.89 98.34H21.48L22.62 95.7999H22.96L24.11 98.34Z" fill="#476F55"/>
<path fill-rule="evenodd" clip-rule="evenodd" d="M26.4901 97.4098V97.1698C26.3101 97.1198 26.0601 97.0599 25.7501 97.0599C25.2801 97.0599 25.0201 97.26 25.0201 97.58V97.59C25.0201 97.91 25.3101 98.09 25.6501 98.09C26.1101 98.1 26.4901 97.8098 26.4901 97.4098ZM24.6401 97.61V97.6C24.6401 97.07 25.0801 96.7899 25.7101 96.7899C26.0301 96.7899 26.2601 96.8298 26.4801 96.8998V96.8099C26.4801 96.3599 26.2001 96.12 25.7301 96.12C25.4301 96.12 25.2001 96.1999 24.9701 96.2999L24.8601 95.9899C25.1401 95.8599 25.4101 95.7799 25.7701 95.7799C26.1301 95.7799 26.4001 95.8699 26.5801 96.0599C26.7501 96.2299 26.8401 96.4699 26.8401 96.7999V98.34H26.4801V97.9598C26.3001 98.1898 26.0101 98.3898 25.5701 98.3898C25.1101 98.3898 24.6401 98.13 24.6401 97.61Z" fill="#476F55"/>
<path fill-rule="evenodd" clip-rule="evenodd" d="M27.7798 95.8199H29.5998V96.1598H28.1498V98.34H27.7798V95.8199Z" fill="#476F55"/>
<path fill-rule="evenodd" clip-rule="evenodd" d="M32.2002 97.09C32.2002 96.54 31.8002 96.1 31.2702 96.1C30.7302 96.1 30.3502 96.54 30.3502 97.08V97.09C30.3502 97.63 30.7502 98.0699 31.2802 98.0699C31.8302 98.0599 32.2002 97.63 32.2002 97.09ZM29.9702 97.09C29.9702 96.37 30.5202 95.7699 31.2802 95.7699C32.0302 95.7699 32.5902 96.36 32.5902 97.08V97.09C32.5902 97.8 32.0302 98.3998 31.2702 98.3998C30.5202 98.3998 29.9702 97.8 29.9702 97.09Z" fill="#476F55"/>
<path fill-rule="evenodd" clip-rule="evenodd" d="M33.9702 96.1598H32.9702V95.8199H35.3602V96.1598H34.3502V98.34H33.9702V96.1598Z" fill="#476F55"/>
<path fill-rule="evenodd" clip-rule="evenodd" d="M36.4198 98.0399H37.3098C37.6898 98.0399 37.8898 97.8798 37.8898 97.6498C37.8898 97.3798 37.6798 97.2198 37.2698 97.2198H36.4198V98.0399ZM37.2398 96.9198C37.5998 96.9198 37.7898 96.7499 37.7898 96.4999C37.7898 96.2599 37.6098 96.12 37.2798 96.12H36.4298V96.9198H37.2398ZM36.0498 95.8199H37.3198C37.8398 95.8199 38.1698 96.0598 38.1698 96.4698C38.1698 96.7798 37.9798 96.9599 37.7198 97.0499C38.0498 97.1399 38.2698 97.3198 38.2698 97.6598C38.2698 98.0998 37.8998 98.34 37.3198 98.34H36.0498V95.8199Z" fill="#476F55"/>
<path fill-rule="evenodd" clip-rule="evenodd" d="M41.1602 97.09C41.1602 96.54 40.7602 96.1 40.2302 96.1C39.6902 96.1 39.3102 96.54 39.3102 97.08V97.09C39.3102 97.63 39.7102 98.0699 40.2402 98.0699C40.7902 98.0599 41.1602 97.63 41.1602 97.09ZM38.9302 97.09C38.9302 96.37 39.4802 95.7699 40.2402 95.7699C40.9902 95.7699 41.5502 96.36 41.5502 97.08V97.09C41.5502 97.8 40.9902 98.3998 40.2302 98.3998C39.4802 98.3998 38.9302 97.8 38.9302 97.09Z" fill="#476F55"/>
<path fill-rule="evenodd" clip-rule="evenodd" d="M44.5099 97.09C44.5099 96.49 44.0999 96.11 43.6299 96.11C43.1599 96.11 42.7199 96.5 42.7199 97.08V97.09C42.7199 97.67 43.1599 98.0599 43.6299 98.0599C44.1099 98.0599 44.5099 97.7 44.5099 97.09ZM42.3599 95.8199H42.7299V96.33C42.9299 96.03 43.2299 95.7699 43.6899 95.7699C44.2899 95.7699 44.8899 96.25 44.8899 97.08V97.09C44.8899 97.91 44.2999 98.3998 43.6899 98.3998C43.2199 98.3998 42.9199 98.15 42.7299 97.86V99.12H42.3599V95.8199Z" fill="#476F55"/>
<path fill-rule="evenodd" clip-rule="evenodd" d="M45.7202 95.8199H46.1002V97.7799L47.6202 95.8199H47.9802V98.34H47.6102V96.3798L46.0702 98.34H45.7202V95.8199Z" fill="#476F55"/>
<path fill-rule="evenodd" clip-rule="evenodd" d="M49.6902 96.1598H48.6802V95.8199H51.0702V96.1598H50.0602V98.34H49.6902V96.1598Z" fill="#476F55"/>
<path fill-rule="evenodd" clip-rule="evenodd" d="M53.4502 96.9398C53.4102 96.4798 53.1502 96.08 52.6502 96.08C52.2102 96.08 51.8802 96.4398 51.8302 96.9398H53.4502ZM51.4502 97.09C51.4502 96.36 51.9602 95.7699 52.6502 95.7699C53.3902 95.7699 53.8202 96.36 53.8202 97.1C53.8202 97.15 53.8202 97.1798 53.8202 97.2198H51.8302C51.8802 97.7598 52.2702 98.0699 52.7102 98.0699C53.0502 98.0699 53.3002 97.9298 53.5002 97.7098L53.7302 97.9198C53.4802 98.1998 53.1702 98.3898 52.6902 98.3898C52.0102 98.3998 51.4502 97.87 51.4502 97.09Z" fill="#476F55"/>
<path fill-rule="evenodd" clip-rule="evenodd" d="M56.92 98.34H56.5L55.6 96.2699L54.7 98.34H54.29L55.43 95.7999H55.78L56.92 98.34Z" fill="#476F55"/>
<path fill-rule="evenodd" clip-rule="evenodd" d="M58.7601 98.0199C59.1801 98.0199 59.3901 97.8299 59.3901 97.5099C59.3901 97.1999 59.1901 96.9999 58.7701 96.9999H58.0201V98.0099H58.7601V98.0199ZM57.6401 95.8199H58.0101V96.6898H58.7801C59.3901 96.6898 59.7701 97.0099 59.7701 97.5099V97.5199C59.7701 98.0099 59.4101 98.34 58.7701 98.34H57.6401V95.8199Z" fill="#476F55"/>
<path fill-rule="evenodd" clip-rule="evenodd" d="M60.52 95.8199H60.89V96.8998H62.39V95.8199H62.76V98.34H62.39V97.2399H60.89V98.34H60.52V95.8199Z" fill="#476F55"/>
<path fill-rule="evenodd" clip-rule="evenodd" d="M66.3302 95.8199H66.7002V98.34H66.3302V95.8199ZM64.1102 98.0199H64.8602C65.2802 98.0199 65.4902 97.8299 65.4902 97.5099C65.4902 97.1999 65.2902 96.9999 64.8702 96.9999H64.1202V98.0199H64.1102ZM64.1102 96.6898H64.8802C65.4902 96.6898 65.8702 97.0099 65.8702 97.5099V97.5199C65.8702 98.0099 65.5102 98.34 64.8702 98.34H63.7402V95.8199H64.1102V96.6898Z" fill="#476F55"/>
<path fill-rule="evenodd" clip-rule="evenodd" d="M68.0802 94.84H68.3502C68.4102 95.02 68.5502 95.1498 68.8002 95.1498C69.0502 95.1498 69.1902 95.02 69.2402 94.84H69.5102C69.4802 95.22 69.1902 95.4498 68.7902 95.4498C68.4002 95.4498 68.1102 95.23 68.0802 94.84ZM67.6802 95.8199H68.0502V97.7699L69.5802 95.8199H69.9402V98.34H69.5702V96.3798L68.0302 98.34H67.6802V95.8199Z" fill="#476F55"/>
<path fill-rule="evenodd" clip-rule="evenodd" d="M19.71 102.09V103.98C20.51 103.96 20.9 103.58 20.9 103.04C20.9 102.49 20.5 102.1 19.71 102.09ZM19.35 103.97V102.08C18.55 102.1 18.16 102.48 18.16 103.02C18.16 103.57 18.55 103.96 19.35 103.97ZM19.34 105.07V104.31C18.32 104.29 17.77 103.75 17.77 103.04C17.77 102.33 18.32 101.79 19.34 101.76V100.74H19.71V101.76C20.73 101.79 21.28 102.32 21.28 103.03C21.28 103.74 20.73 104.29 19.71 104.31V105.07H19.34Z" fill="#476F55"/>
<path fill-rule="evenodd" clip-rule="evenodd" d="M24.4402 102.94C24.4402 102.39 24.0402 101.95 23.5102 101.95C22.9702 101.95 22.5902 102.39 22.5902 102.92V102.93C22.5902 103.47 22.9902 103.91 23.5202 103.91C24.0602 103.91 24.4402 103.47 24.4402 102.94ZM22.2002 102.94C22.2002 102.22 22.7502 101.62 23.5102 101.62C24.2602 101.62 24.8202 102.21 24.8202 102.93V102.94C24.8202 103.65 24.2602 104.25 23.5002 104.25C22.7502 104.25 22.2002 103.65 22.2002 102.94Z" fill="#476F55"/>
<path fill-rule="evenodd" clip-rule="evenodd" d="M25.6299 101.67H25.9999V102.75H27.5099V101.67H27.8799V104.19H27.5099V103.09H25.9999V104.19H25.6299V101.67Z" fill="#476F55"/>
<path fill-rule="evenodd" clip-rule="evenodd" d="M29.2301 103.86H30.8001L30.0201 102.03L29.2301 103.86ZM31.2001 103.85H31.4901V104.86H31.1501V104.19H28.9001V104.86H28.5601V103.85H28.8501L29.8301 101.65H30.2201L31.2001 103.85Z" fill="#476F55"/>
<path fill-rule="evenodd" clip-rule="evenodd" d="M69.9501 104.3H34.3101L34.3201 101.32H69.9501V104.3Z" fill="#476F55"/>
<path fill-rule="evenodd" clip-rule="evenodd" d="M74.06 57.7098C73.18 57.0998 71.5001 55.9199 70.4801 55.2399C70.2801 55.0999 70.2901 54.7998 70.5101 54.6898C71.2101 54.3198 72.0801 53.8799 73.0401 53.4899C73.2301 53.4099 73.3001 53.1899 73.1901 53.0099C71.6501 50.5899 72.88 50.81 73.28 49.09C73.31 48.95 73.2401 48.8099 73.1201 48.7399C72.5001 48.4199 70.77 47.5898 69.96 47.1998C69.75 47.0998 69.72 46.8298 69.88 46.6698L71.6601 45.0099C71.8501 44.8399 71.77 44.5298 71.52 44.4598L67.6101 43.4198C67.3501 43.3498 67.28 43.01 67.49 42.85L70.28 40.6798C70.5 40.5098 70.4201 40.16 70.1501 40.11L67.96 39.6498C67.82 39.6198 67.71 39.5 67.7 39.35L67.4401 35.35C67.4301 35.15 67.2401 35.0099 67.0401 35.0599L64.5101 35.6398C64.4201 35.6598 64.32 35.64 64.25 35.59L61 33.2499C60.93 33.1999 60.84 33.1798 60.75 33.1898L57.21 33.87C57.02 33.91 56.8401 33.7699 56.8301 33.5699L56.3601 26.0599C56.3501 25.8899 56.2 25.7499 56.03 25.7599L49.78 26.6698C49.61 26.6898 49.4401 26.77 49.3101 26.87L46.59 29.0399C46.45 29.1999 46.2002 29.1799 46.0801 29.0099L43.95 26.7098C43.82 26.5698 43.66 26.4698 43.48 26.4298L38.52 25.11H38.42C38.26 25.14 38.14 25.2898 38.16 25.4598L38.5801 30.6698C38.6001 30.8898 38.4 31.0599 38.18 31.0099L33.42 29.85C33.18 29.79 32.97 30.0099 33.03 30.2499L33.7 32.7799C33.75 32.9699 33.62 33.1698 33.42 33.1898L29.34 33.58C29.14 33.6 29.01 33.7899 29.06 33.9799C29.28 34.8599 29.96 37.3698 30.14 37.6998C30.07 37.5898 30.08 37.3799 30.2 37.2599L32.11 35.3898C32.23 35.2698 32.41 35.25 32.55 35.34L35.02 36.8998C35.09 36.9398 35.16 36.9498 35.23 36.9498C35.3 36.9498 35.37 36.9298 35.43 36.8798C35.47 36.8498 35.5 36.8099 35.53 36.7599L36.76 34.4298C36.77 34.4098 36.78 34.3998 36.8 34.3898C36.87 34.2898 36.99 34.2399 37.11 34.2399C37.16 34.2399 37.2001 34.2599 37.2401 34.2799L41.87 36.5699C42.07 36.6699 42.31 36.57 42.37 36.36L43.03 34.2799C43.12 33.9899 43.52 33.9398 43.68 34.1998L45.57 37.35C45.72 37.6 46.1 37.5699 46.21 37.2999L47.4402 34.1698C47.4602 34.1198 47.49 34.0699 47.53 34.0399C47.61 33.9699 47.7101 33.9298 47.8101 33.9498C47.8601 33.9598 47.91 33.9699 47.96 33.9999L50.4901 35.62C50.6001 35.69 50.74 35.6898 50.85 35.6298C50.9 35.5998 50.9501 35.5699 50.9801 35.5199L51 35.4899L52.5 33.1998C52.57 33.0998 52.66 33.0499 52.76 33.0399C52.8601 33.0299 52.9601 33.0598 53.0401 33.1298C53.0901 33.1798 53.1301 33.2399 53.1501 33.3199L53.9402 36.9398C53.9502 36.9898 53.97 37.0299 54 37.0699C54.03 37.1099 54.06 37.1398 54.1 37.1598L58.01 39.7098C58.16 39.7998 58.2101 39.9798 58.1501 40.1298C58.1401 40.1498 58.1201 40.1698 58.1101 40.1898C58.0901 40.2098 58.0901 40.2399 58.0601 40.2599L55.18 43.0199C55.12 43.0799 55.0901 43.1398 55.0801 43.2098C55.0401 43.4198 55.19 43.6398 55.43 43.6398L57.8001 43.6598C57.8101 43.6598 57.83 43.6598 57.84 43.6598L63.5401 44.3798C63.6501 44.3898 63.7501 44.4599 63.8101 44.5599L65.99 48.36C66.12 48.58 65.98 48.8398 65.74 48.8898C65.73 48.8898 65.72 48.8998 65.71 48.8998L65.4801 48.9198L62.4501 49.1898C62.3301 49.1998 62.23 49.27 62.18 49.37C62.15 49.43 62.1301 49.4899 62.1301 49.5499C62.1301 49.6099 62.15 49.6799 62.19 49.7399L63.9701 52.4398C64.0401 52.5398 64.0401 52.6499 64.0101 52.7499C63.9701 52.8699 63.87 52.9699 63.73 52.9899L60.0601 53.6C60.0201 53.61 60 53.6298 59.96 53.6498C59.93 53.6698 59.8901 53.6698 59.8601 53.6998C59.8201 53.7398 59.8 53.8 59.78 53.85C59.78 53.86 59.7701 53.8698 59.76 53.8798C59.73 54.0098 59.7801 54.1599 59.9101 54.2499L61.6101 55.4098C61.6901 55.4698 61.73 55.5498 61.75 55.6398C61.77 55.7298 61.7601 55.8198 61.7201 55.8998C61.6901 55.9498 61.6401 55.9999 61.5801 56.0299L59.3801 57.2299C59.1601 57.3499 59.1401 57.6399 59.2901 57.7899C59.3401 57.8399 59.4101 57.8798 59.4901 57.8998L62.2701 58.3898C62.5101 58.4098 62.7201 58.4398 62.8801 58.4698C62.9101 58.4798 62.9201 58.4999 62.9501 58.5099L63.07 58.5299C63.13 58.5399 63.1801 58.56 63.2201 58.6L66.9801 61.4598C67.1001 61.5498 67.1501 61.71 67.1101 61.85L63.92 64.8199C63.87 64.9999 63.69 65.1099 63.51 65.0699L65.8601 65.7399C65.9701 65.7699 66.09 65.7398 66.17 65.6598L71.6501 62.62C71.7801 62.5 71.79 62.2998 71.67 62.1698L69.71 59.9598C69.55 59.7798 69.6301 59.4898 69.8701 59.4298L73.9801 58.3099C74.1302 58.2699 74.2201 58.1299 74.2201 57.9999C74.2001 57.8699 74.15 57.7698 74.06 57.7098Z" fill="#DF2726"/>
<path fill-rule="evenodd" clip-rule="evenodd" d="M63.9001 64.7898L67.0901 61.8199C67.1301 61.6799 67.0801 61.5197 66.9601 61.4297L63.2001 58.5699C63.1601 58.5399 63.1001 58.5098 63.0501 58.4998L62.9301 58.4798L62.2501 58.3599L59.4701 57.8699C59.3901 57.8499 59.3201 57.8198 59.2701 57.7598C59.1201 57.5998 59.1401 57.3197 59.3601 57.1997L61.5601 55.9998C61.6201 55.9698 61.6601 55.9199 61.7001 55.8699C61.7501 55.7899 61.7501 55.6999 61.7301 55.6099C61.7101 55.5199 61.6701 55.4397 61.5901 55.3797L59.8901 54.2198C59.7601 54.1298 59.7101 53.9799 59.7401 53.8499C59.7401 53.8399 59.7501 53.8299 59.7601 53.8199C59.7801 53.7699 59.8001 53.7097 59.8401 53.6697C59.8601 53.6497 59.9001 53.6399 59.9401 53.6199C59.9701 53.5999 60.0001 53.5799 60.0401 53.5699L63.7101 52.9598C63.8501 52.9398 63.9401 52.8398 63.9901 52.7198C64.0201 52.6198 64.0201 52.5097 63.9501 52.4097L62.1701 49.7098C62.1301 49.6498 62.1101 49.5798 62.1101 49.5198C62.1101 49.4498 62.1301 49.3899 62.1601 49.3399C62.2201 49.2499 62.3101 49.1697 62.4301 49.1597L65.4601 48.8897L65.6901 48.8699C65.7001 48.8699 65.7101 48.8599 65.7201 48.8599C65.9601 48.8199 66.1001 48.5499 65.9701 48.3299L63.7901 44.5298C63.7301 44.4298 63.6401 44.3699 63.5201 44.3499L57.8201 43.6297C57.8101 43.6297 57.7901 43.6297 57.7801 43.6297L55.4101 43.6099C55.1701 43.6099 55.0201 43.3897 55.0601 43.1797C55.0701 43.1097 55.1101 43.0498 55.1601 42.9898L58.0401 40.2298C58.0601 40.2098 58.0701 40.1797 58.0901 40.1597C58.1001 40.1397 58.1201 40.1199 58.1301 40.0999C58.1801 39.9499 58.1301 39.7697 57.9901 39.6797L54.0801 37.1297C54.0401 37.1097 54.0101 37.0698 53.9801 37.0398C53.9501 36.9998 53.9401 36.9597 53.9201 36.9097L53.1301 33.2898C53.1101 33.2098 53.0701 33.1499 53.0201 33.0999C52.9401 33.0299 52.8401 32.9998 52.7401 33.0098C52.6401 33.0198 52.5401 33.0697 52.4801 33.1697L50.9801 35.4598L50.9601 35.4898C50.9301 35.5398 50.8801 35.5799 50.8301 35.5999C50.7201 35.6599 50.5801 35.6599 50.4701 35.5899L47.9401 33.9698C47.8901 33.9398 47.8401 33.9197 47.7901 33.9197C47.6901 33.9097 47.5801 33.9398 47.5101 34.0098C47.4701 34.0398 47.4401 34.0897 47.4201 34.1397L46.1901 37.2698C46.0801 37.5498 45.7001 37.5799 45.5501 37.3199L43.6601 34.1697C43.5001 33.9097 43.1001 33.9498 43.0101 34.2498L42.3501 36.3299C42.2801 36.5399 42.0501 36.6398 41.8501 36.5398L37.2201 34.2498C37.1801 34.2298 37.1301 34.2198 37.0901 34.2098C36.9701 34.1998 36.8601 34.2599 36.7801 34.3599C36.7701 34.3799 36.7501 34.3897 36.7401 34.3997L35.5101 36.7298C35.4901 36.7798 35.4501 36.8199 35.4101 36.8499C35.3501 36.8899 35.2801 36.9097 35.2101 36.9197C35.1401 36.9297 35.0601 36.9199 35.0001 36.8699L32.5301 35.3099C32.3901 35.2199 32.2101 35.2399 32.0901 35.3599L30.1901 37.2298C30.0701 37.3398 30.0601 37.5597 30.1301 37.6697C30.5501 38.3397 31.7801 40.3599 32.8701 42.6199C33.0001 42.8799 33.2901 43.7799 33.3101 43.8399C33.3101 43.8199 33.3001 43.8098 33.3001 43.7898C33.2801 43.6998 33.3001 43.6199 33.3501 43.5599C33.4001 43.4999 33.4601 43.4598 33.5501 43.4598L34.7701 43.4397C34.9001 43.4397 35.0201 43.5397 35.0401 43.6697L35.7301 48.3399C35.7601 48.5299 35.9701 48.6298 36.1301 48.5298L39.4801 46.5198C39.6701 46.3998 39.9101 46.5598 39.8801 46.7898L39.3701 50.3299C39.3501 50.4899 39.4701 50.6297 39.6301 50.6397L43.4401 50.6697C43.5901 50.6697 43.7001 50.7897 43.7101 50.9297L43.7401 54.7598C43.7401 54.9198 43.8901 55.0498 44.0501 55.0198L47.5801 54.5098C47.8001 54.4798 47.9601 54.7197 47.8501 54.9097L45.8501 58.2598C45.7501 58.4198 45.8501 58.6297 46.0401 58.6597L50.7001 59.3499C50.8301 59.3699 50.9301 59.4799 50.9301 59.6199L50.9101 60.8399C50.9101 61.0099 50.7501 61.1299 50.5801 61.0899C50.5801 61.0899 61.1801 64.4198 63.4801 65.0198C63.4801 65.0198 63.4901 65.0198 63.5001 65.0198C63.6701 65.0798 63.8501 64.9698 63.9001 64.7898Z" fill="#9D1B2E"/>
<path fill-rule="evenodd" clip-rule="evenodd" d="M25.3101 71.3998L32.1201 64.5699C33.9201 65.3599 36.3201 64.8599 39.7301 63.0099C43.4301 61.0099 46.4601 60.13 50.5701 61.11C50.7401 61.15 50.9001 61.03 50.9001 60.86L50.9201 59.6398C50.9201 59.5098 50.8301 59.39 50.6901 59.37L46.0301 58.6798C45.8401 58.6498 45.7401 58.4399 45.8401 58.2799L47.8401 54.9298C47.9601 54.7398 47.8001 54.4899 47.5701 54.5299L44.0401 55.0399C43.8801 55.0599 43.7401 54.9399 43.7301 54.7799L43.7001 50.9498C43.7001 50.7998 43.5801 50.6898 43.4401 50.6898L39.6301 50.6598C39.4701 50.6598 39.3501 50.52 39.3701 50.35L39.8801 46.8099C39.9101 46.5899 39.6701 46.4299 39.4801 46.5399L36.1301 48.5499C35.9701 48.6499 35.7601 48.55 35.7301 48.36L35.0401 43.6898C35.0201 43.5598 34.9101 43.4598 34.7701 43.4598L33.5501 43.4799C33.4701 43.4799 33.4001 43.52 33.3501 43.58C33.3001 43.64 33.2801 43.7299 33.3001 43.8099C33.3101 43.8299 33.3101 43.84 33.3101 43.86C34.2701 47.95 33.3901 50.9798 31.4001 54.6798C29.4901 58.2298 29.0101 60.6999 29.9501 62.5299L18.1201 74.3998H69.9401V71.4198H25.3101V71.3998Z" fill="#476F55"/>
</svg>
