<svg width="192" height="235" viewBox="0 0 192 235" fill="none" xmlns="http://www.w3.org/2000/svg">
<path d="M191.1 0.650146H0.780029V234.92H191.1V0.650146Z" fill="#FEFEFE"/>
<path fill-rule="evenodd" clip-rule="evenodd" d="M45.29 143.16H54.5001V153.39H51.6801V145.67H48.11V153.39H45.29V143.16Z" fill="#476F55"/>
<path fill-rule="evenodd" clip-rule="evenodd" d="M63.0303 149.34L61.8903 146.45L60.7402 149.34H63.0303ZM60.5602 143.09H63.2803L67.6202 153.39H64.5903L63.8602 151.55H59.9102L59.1802 153.39H56.2202L60.5602 143.09Z" fill="#476F55"/>
<path fill-rule="evenodd" clip-rule="evenodd" d="M69.3398 143.16H72.3198L74.7598 147.12L77.1898 143.16H80.1698V153.39H77.3598V147.52L74.7598 151.52H74.6998L72.1098 147.53V153.39H69.3398V143.16Z" fill="#476F55"/>
<path fill-rule="evenodd" clip-rule="evenodd" d="M86.7103 145.6C85.7603 145.6 85.1802 146.02 85.1802 146.84V146.85C85.1802 147.62 85.7503 148.06 86.7003 148.06H88.5602V145.59H86.7103V145.6ZM91.3903 153.39H88.5602V150.3H87.3403L85.2703 153.39H81.9902L84.4503 149.83C83.0703 149.28 82.3403 148.14 82.3403 146.76V146.74C82.3403 144.37 84.1203 143.16 86.7803 143.16H91.3802V153.39H91.3903Z" fill="#476F55"/>
<path fill-rule="evenodd" clip-rule="evenodd" d="M96.4099 145.65H93.3599V143.16H102.29V145.65H99.2299V153.39H96.4099V145.65Z" fill="#476F55"/>
<path fill-rule="evenodd" clip-rule="evenodd" d="M108.42 151.04C109.41 151.04 110.05 150.59 110.05 149.76V149.73C110.05 148.91 109.47 148.47 108.43 148.47H107.08V151.04H108.42ZM104.26 143.16H107.09V146.21H108.59C111.17 146.21 112.87 147.39 112.87 149.72V149.75C112.87 152.04 111.21 153.39 108.5 153.39H104.26V143.16Z" fill="#476F55"/>
<path fill-rule="evenodd" clip-rule="evenodd" d="M45.29 160.2H54.5001V170.43H51.6801V162.71H48.11V170.43H45.29V160.2Z" fill="#476F55"/>
<path fill-rule="evenodd" clip-rule="evenodd" d="M64.7802 165.34V165.31C64.7802 163.82 63.7302 162.55 62.1702 162.55C60.6102 162.55 59.5802 163.81 59.5802 165.28V165.31C59.5802 166.79 60.6402 168.07 62.2002 168.07C63.7502 168.07 64.7802 166.82 64.7802 165.34ZM56.7002 165.34V165.31C56.7002 162.37 59.0602 160 62.2002 160C65.3502 160 67.6802 162.35 67.6802 165.29V165.32C67.6802 168.26 65.3202 170.64 62.1802 170.64C59.0302 170.63 56.7002 168.28 56.7002 165.34Z" fill="#476F55"/>
<path fill-rule="evenodd" clip-rule="evenodd" d="M69.8599 160.2H72.6899L72.6699 164.06H73.1799L76.2699 160.2H79.6499L75.4099 165.15L79.8499 170.43H76.3599L73.1799 166.51H72.6699L72.6899 170.43H69.8599V160.2Z" fill="#476F55"/>
<path fill-rule="evenodd" clip-rule="evenodd" d="M88.27 165.34V165.31C88.27 163.82 87.2199 162.55 85.6599 162.55C84.0999 162.55 83.0699 163.81 83.0699 165.28V165.31C83.0699 166.79 84.1299 168.07 85.6899 168.07C87.2399 168.07 88.27 166.82 88.27 165.34ZM80.1899 165.34V165.31C80.1899 162.37 82.5499 160 85.6899 160C88.8399 160 91.1699 162.35 91.1699 165.29V165.32C91.1699 168.26 88.8099 170.64 85.6699 170.64C82.5199 170.63 80.1899 168.28 80.1899 165.34Z" fill="#476F55"/>
<path fill-rule="evenodd" clip-rule="evenodd" d="M103.01 170.43H99.8801L97.4101 164.04L94.9501 170.43H91.8901L96.1501 160.13H98.7401L103.01 170.43Z" fill="#476F55"/>
<path fill-rule="evenodd" clip-rule="evenodd" d="M104.72 160.2H112.92V162.59H107.52V164.16H112.41V166.39H107.52V168.02H113V170.43H104.72V160.2Z" fill="#476F55"/>
<path fill-rule="evenodd" clip-rule="evenodd" d="M115.18 160.2H118.01V164.03H121.63V160.2H124.46V170.43H121.63V166.54H118.01V170.43H115.18V160.2Z" fill="#476F55"/>
<path fill-rule="evenodd" clip-rule="evenodd" d="M133.79 170.43V164.6L129.45 170.43H126.99V160.2H129.81V165.81L134.01 160.2H136.61V170.43H133.79Z" fill="#476F55"/>
<path fill-rule="evenodd" clip-rule="evenodd" d="M141.1 157.32H142.77C142.95 157.74 143.3 157.98 143.96 157.98C144.64 157.98 144.98 157.75 145.17 157.32H146.83C146.64 158.78 145.58 159.53 143.96 159.53C142.36 159.53 141.29 158.78 141.1 157.32ZM145.95 170.43V164.6L141.61 170.43H139.15V160.2H141.97V165.81L146.17 160.2H148.78V170.43H145.95Z" fill="#476F55"/>
<path fill-rule="evenodd" clip-rule="evenodd" d="M47.6 183.84C48.63 183.84 49.39 183.4 49.39 182.57V182.55C49.39 181.68 48.66 181.31 47.64 181.31H45.54V183.84H47.6ZM44.78 177.72H49.58V178.42H45.53V180.62H47.67C49.14 180.62 50.15 181.25 50.15 182.51V182.53C50.15 183.89 48.99 184.54 47.56 184.54H44.77V177.72H44.78Z" fill="#476F55"/>
<path fill-rule="evenodd" clip-rule="evenodd" d="M57.0103 184.34H56.1702L54.3702 180.19L52.5703 184.34H51.7603L54.0303 179.26H54.7202L57.0103 184.34Z" fill="#476F55"/>
<path fill-rule="evenodd" clip-rule="evenodd" d="M61.7803 182.49V182C61.4103 181.89 60.9103 181.79 60.3003 181.79C59.3603 181.79 58.8303 182.2 58.8303 182.83V182.85C58.8303 183.48 59.4103 183.86 60.0903 183.86C61.0203 183.86 61.7803 183.29 61.7803 182.49ZM58.0703 182.88V182.86C58.0703 181.8 58.9403 181.23 60.2203 181.23C60.8603 181.23 61.3203 181.32 61.7603 181.45V181.27C61.7603 180.36 61.2103 179.89 60.2603 179.89C59.6703 179.89 59.2003 180.05 58.7303 180.26L58.5103 179.65C59.0603 179.4 59.6103 179.23 60.3403 179.23C61.0503 179.23 61.5903 179.42 61.9603 179.79C62.3003 180.13 62.4803 180.62 62.4803 181.26V184.34H61.7603V183.58C61.4103 184.04 60.8303 184.45 59.9403 184.45C59.0203 184.45 58.0703 183.91 58.0703 182.88Z" fill="#476F55"/>
<path fill-rule="evenodd" clip-rule="evenodd" d="M64.3599 179.3H68.0099V179.99H65.0999V184.34H64.3599V179.3Z" fill="#476F55"/>
<path fill-rule="evenodd" clip-rule="evenodd" d="M73.22 181.85V181.83C73.22 180.75 72.42 179.86 71.35 179.86C70.26 179.86 69.52 180.75 69.52 181.81V181.83C69.52 182.91 70.32 183.79 71.38 183.79C72.47 183.79 73.22 182.91 73.22 181.85ZM68.75 181.85V181.83C68.75 180.4 69.86 179.19 71.38 179.19C72.89 179.19 73.99 180.38 73.99 181.8V181.82C73.99 183.24 72.87 184.45 71.35 184.45C69.85 184.46 68.75 183.27 68.75 181.85Z" fill="#476F55"/>
<path fill-rule="evenodd" clip-rule="evenodd" d="M76.7703 179.98H74.7603V179.3H79.5402V179.98H77.5203V184.34H76.7703V179.98Z" fill="#476F55"/>
<path fill-rule="evenodd" clip-rule="evenodd" d="M81.6599 183.74H83.4399C84.1899 183.74 84.6099 183.43 84.6099 182.95C84.6099 182.41 84.1799 182.09 83.3699 182.09H81.6699V183.74H81.6599ZM83.3099 181.51C84.0299 181.51 84.4099 181.18 84.4099 180.67C84.4099 180.2 84.0499 179.91 83.3799 179.91H81.6699V181.51H83.3099ZM80.9199 179.3H83.46C84.5 179.3 85.1599 179.79 85.1599 180.6C85.1599 181.23 84.7899 181.57 84.2599 181.76C84.9199 181.93 85.3599 182.3 85.3599 182.98C85.3599 183.87 84.62 184.35 83.46 184.35H80.9199V179.3Z" fill="#476F55"/>
<path fill-rule="evenodd" clip-rule="evenodd" d="M91.1599 181.85V181.83C91.1599 180.75 90.3499 179.86 89.2899 179.86C88.1999 179.86 87.45 180.75 87.45 181.81V181.83C87.45 182.91 88.2499 183.79 89.3099 183.79C90.4099 183.79 91.1599 182.91 91.1599 181.85ZM86.6899 181.85V181.83C86.6899 180.4 87.7999 179.19 89.3099 179.19C90.8199 179.19 91.9199 180.38 91.9199 181.8V181.82C91.9199 183.24 90.8 184.45 89.28 184.45C87.79 184.46 86.6899 183.27 86.6899 181.85Z" fill="#476F55"/>
<path fill-rule="evenodd" clip-rule="evenodd" d="M97.8701 181.84V181.82C97.8701 180.63 97.06 179.87 96.1 179.87C95.17 179.87 94.2801 180.66 94.2801 181.81V181.83C94.2801 183 95.16 183.78 96.1 183.78C97.07 183.78 97.8701 183.06 97.8701 181.84ZM93.5601 179.3H94.3101V180.31C94.7201 179.71 95.3101 179.19 96.2401 179.19C97.4401 179.19 98.6401 180.15 98.6401 181.8V181.82C98.6401 183.47 97.4601 184.44 96.2401 184.44C95.3101 184.44 94.7001 183.93 94.3101 183.37V185.9H93.5601V179.3Z" fill="#476F55"/>
<path fill-rule="evenodd" clip-rule="evenodd" d="M100.29 179.3H101.04V183.21L104.09 179.3H104.81V184.34H104.07V180.43L100.99 184.34H100.29V179.3Z" fill="#476F55"/>
<path fill-rule="evenodd" clip-rule="evenodd" d="M108.23 179.98H106.22V179.3H111V179.98H108.98V184.34H108.23V179.98Z" fill="#476F55"/>
<path fill-rule="evenodd" clip-rule="evenodd" d="M115.76 181.55C115.68 180.63 115.15 179.83 114.16 179.83C113.28 179.83 112.62 180.56 112.52 181.55H115.76ZM111.76 181.84V181.82C111.76 180.37 112.78 179.2 114.17 179.2C115.66 179.2 116.51 180.39 116.51 181.86C116.51 181.96 116.51 182.02 116.5 182.1H112.51C112.62 183.19 113.39 183.81 114.28 183.81C114.97 183.81 115.46 183.53 115.87 183.1L116.34 183.52C115.83 184.09 115.22 184.47 114.27 184.47C112.89 184.46 111.76 183.4 111.76 181.84Z" fill="#476F55"/>
<path fill-rule="evenodd" clip-rule="evenodd" d="M122.7 184.34H121.87L120.07 180.19L118.26 184.34H117.45L119.73 179.26H120.42L122.7 184.34Z" fill="#476F55"/>
<path fill-rule="evenodd" clip-rule="evenodd" d="M126.4 183.7C127.24 183.7 127.65 183.32 127.65 182.69C127.65 182.07 127.24 181.68 126.41 181.68H124.9V183.71H126.4V183.7ZM124.15 179.3H124.9V181.04H126.44C127.67 181.04 128.42 181.67 128.42 182.68V182.7C128.42 183.69 127.69 184.35 126.42 184.35H124.16V179.3H124.15Z" fill="#476F55"/>
<path fill-rule="evenodd" clip-rule="evenodd" d="M129.91 179.3H130.66V181.46H133.67V179.3H134.4V184.34H133.67V182.14H130.66V184.34H129.91V179.3Z" fill="#476F55"/>
<path fill-rule="evenodd" clip-rule="evenodd" d="M141.54 179.3H142.29V184.34H141.54V179.3ZM137.11 183.7H138.61C139.45 183.7 139.86 183.32 139.86 182.69C139.86 182.07 139.45 181.68 138.62 181.68H137.11V183.7ZM137.11 181.04H138.65C139.88 181.04 140.63 181.67 140.63 182.68V182.7C140.63 183.69 139.9 184.35 138.63 184.35H136.37V179.3H137.12V181.04H137.11Z" fill="#476F55"/>
<path fill-rule="evenodd" clip-rule="evenodd" d="M145.06 177.34H145.6C145.72 177.7 146 177.95 146.5 177.95C146.99 177.95 147.28 177.7 147.39 177.34H147.94C147.88 178.11 147.31 178.56 146.5 178.56C145.69 178.56 145.12 178.11 145.06 177.34ZM144.24 179.3H144.99V183.21L148.04 179.3H148.76V184.34H148.02V180.42L144.94 184.34H144.24V179.3Z" fill="#476F55"/>
<path fill-rule="evenodd" clip-rule="evenodd" d="M48.2001 191.84V195.62C49.8001 195.59 50.5901 194.82 50.5901 193.74C50.6001 192.65 49.8001 191.87 48.2001 191.84ZM47.4901 195.62V191.84C45.8901 191.87 45.11 192.64 45.11 193.73C45.1 194.82 45.8901 195.59 47.4901 195.62ZM47.47 197.81V196.28C45.42 196.24 44.3301 195.16 44.3301 193.73C44.3301 192.32 45.43 191.23 47.47 191.18V189.13H48.2101V191.18C50.2501 191.23 51.35 192.3 51.35 193.72C51.35 195.14 50.2401 196.24 48.2101 196.28V197.81H47.47Z" fill="#476F55"/>
<path fill-rule="evenodd" clip-rule="evenodd" d="M57.6702 193.56V193.54C57.6702 192.46 56.8602 191.57 55.8002 191.57C54.7102 191.57 53.9602 192.46 53.9602 193.52V193.54C53.9602 194.62 54.7602 195.5 55.8202 195.5C56.9102 195.5 57.6702 194.62 57.6702 193.56ZM53.2002 193.56V193.54C53.2002 192.11 54.3102 190.91 55.8202 190.91C57.3302 190.91 58.4402 192.1 58.4402 193.52V193.54C58.4402 194.96 57.3202 196.17 55.8002 196.17C54.3002 196.17 53.2002 194.98 53.2002 193.56Z" fill="#476F55"/>
<path fill-rule="evenodd" clip-rule="evenodd" d="M60.0703 191.01H60.8103V193.17H63.8203V191.01H64.5603V196.06H63.8203V193.85H60.8103V196.06H60.0703V191.01Z" fill="#476F55"/>
<path fill-rule="evenodd" clip-rule="evenodd" d="M67.28 195.39H70.4199L68.8599 191.72L67.28 195.39ZM71.21 195.37H71.7899V197.39H71.1099V196.05H66.6199V197.39H65.9399V195.37H66.52L68.4799 190.97H69.2599L71.21 195.37Z" fill="#476F55"/>
<path fill-rule="evenodd" clip-rule="evenodd" d="M148.79 196.28H77.4399L77.46 190.3H148.79V196.28Z" fill="#476F55"/>
<path fill-rule="evenodd" clip-rule="evenodd" d="M157.03 102.99C155.28 101.76 151.9 99.41 149.86 98.04C149.45 97.77 149.48 97.1599 149.91 96.9299C151.31 96.1899 153.05 95.3 154.98 94.52C155.36 94.37 155.51 93.9101 155.29 93.5601C152.22 88.7101 154.67 89.15 155.46 85.72C155.52 85.44 155.39 85.15 155.13 85.02C153.89 84.38 150.41 82.7099 148.79 81.9399C148.38 81.7399 148.3 81.2001 148.63 80.8801L152.18 77.55C152.55 77.2001 152.4 76.58 151.9 76.45L144.07 74.3601C143.55 74.2201 143.41 73.55 143.84 73.22L149.43 68.8701C149.87 68.5301 149.71 67.83 149.17 67.72L144.79 66.8101C144.5 66.7501 144.29 66.51 144.28 66.22L143.77 58.21C143.74 57.81 143.37 57.5301 142.98 57.6201L137.91 58.79C137.73 58.83 137.54 58.7999 137.39 58.6899L130.89 54C130.74 53.9 130.57 53.8601 130.39 53.8901L123.3 55.24C122.92 55.31 122.56 55.0301 122.53 54.6401L121.59 39.6101C121.57 39.2601 121.28 38.99 120.93 39L108.42 40.8201C108.07 40.8701 107.75 41.01 107.47 41.23L102.02 45.5801C101.74 45.8901 101.25 45.87 101.01 45.52L96.7401 40.9202C96.4901 40.6502 96.1601 40.4501 95.8001 40.3601L85.8701 37.71H85.6701C85.3501 37.77 85.1101 38.0601 85.1401 38.4001L85.9801 48.8301C86.0201 49.2701 85.6101 49.62 85.1901 49.51L75.6502 47.1899C75.1702 47.0699 74.7501 47.51 74.8701 47.99L76.2102 53.0601C76.3102 53.4501 76.0402 53.8301 75.6502 53.8701L67.4701 54.6501C67.0701 54.6901 66.8102 55.07 66.9002 55.45C67.3502 57.21 68.6901 62.2301 69.0701 62.8901C68.9401 62.6701 68.9501 62.24 69.1901 62.01L73.0101 58.27C73.2501 58.04 73.6101 58.0002 73.8901 58.1702L78.8402 61.3C78.9702 61.38 79.1202 61.4001 79.2702 61.3901C79.4102 61.3801 79.5501 61.34 79.6701 61.25C79.7501 61.19 79.8101 61.11 79.8601 61.02L82.3201 56.3601C82.3401 56.3201 82.3701 56.3 82.3901 56.27C82.5401 56.07 82.7601 55.96 83.0001 55.97C83.0901 55.98 83.1802 56 83.2702 56.04L92.5302 60.6201C92.9202 60.8201 93.4002 60.6099 93.5302 60.1899L94.8501 56.02C95.0401 55.43 95.8302 55.3401 96.1502 55.8701L99.9301 62.1702C100.24 62.6802 100.99 62.6201 101.21 62.0601L103.67 55.8C103.71 55.69 103.77 55.6 103.85 55.53C104 55.39 104.21 55.3201 104.42 55.3401C104.52 55.3501 104.63 55.39 104.72 55.45L109.79 58.6899C110.02 58.8399 110.29 58.83 110.51 58.71C110.61 58.66 110.7 58.59 110.77 58.48L110.81 58.4102L113.81 53.8301C113.94 53.6301 114.14 53.53 114.34 53.51C114.54 53.49 114.75 53.56 114.9 53.7C115 53.79 115.08 53.9201 115.11 54.0701L116.7 61.3101C116.72 61.4001 116.76 61.4901 116.81 61.5601L116.82 61.5701C116.87 61.6401 116.94 61.71 117.01 61.75L124.83 66.8601C125.12 67.0501 125.22 67.41 125.11 67.71C125.09 67.76 125.05 67.8001 125.02 67.8401C124.99 67.8901 124.97 67.94 124.93 67.99L119.17 73.51C119.05 73.62 118.99 73.7601 118.96 73.8901C118.88 74.3001 119.18 74.74 119.66 74.75L124.4 74.79C124.43 74.79 124.45 74.7901 124.48 74.8L135.89 76.23C136.11 76.26 136.31 76.3901 136.42 76.5901L140.79 84.2C141.04 84.6399 140.77 85.17 140.29 85.26C140.27 85.26 140.26 85.28 140.24 85.28L139.79 85.3201L133.73 85.8701C133.48 85.8901 133.29 86.04 133.18 86.23C133.12 86.34 133.08 86.4701 133.08 86.6001C133.08 86.7301 133.11 86.86 133.19 86.99L136.75 92.3901C136.88 92.5901 136.89 92.82 136.82 93.01C136.74 93.25 136.55 93.45 136.27 93.49L128.92 94.72C128.84 94.73 128.79 94.7901 128.72 94.8201C128.66 94.8501 128.58 94.8702 128.53 94.9202C128.45 95.0002 128.4 95.11 128.37 95.22C128.36 95.24 128.34 95.26 128.34 95.28C128.28 95.55 128.37 95.85 128.64 96.03L132.04 98.3601C132.21 98.4701 132.29 98.6401 132.32 98.8201C132.35 98.9901 132.34 99.1801 132.25 99.3301C132.19 99.4301 132.1 99.5201 131.98 99.5901L127.57 101.98C127.12 102.22 127.09 102.79 127.39 103.11C127.49 103.22 127.62 103.29 127.79 103.32L133.36 104.3C133.84 104.35 134.26 104.41 134.58 104.47C134.63 104.48 134.67 104.52 134.72 104.54L134.95 104.58C135.06 104.6 135.17 104.65 135.26 104.71L142.79 110.44C143.03 110.62 143.13 110.93 143.04 111.22L136.66 117.17C136.55 117.53 136.2 117.74 135.84 117.66L140.55 118.99C140.77 119.05 141.01 118.99 141.17 118.84L152.15 112.75C152.4 112.51 152.42 112.11 152.19 111.85L148.27 107.43C147.95 107.07 148.12 106.5 148.58 106.37L156.8 104.13C157.11 104.05 157.28 103.78 157.28 103.5C157.31 103.33 157.22 103.12 157.03 102.99Z" fill="#DF2726"/>
<path fill-rule="evenodd" clip-rule="evenodd" d="M136.69 117.18L143.07 111.23C143.16 110.94 143.06 110.63 142.82 110.45L135.29 104.72C135.2 104.65 135.09 104.6 134.98 104.59L134.75 104.55L133.39 104.31L127.82 103.33C127.65 103.3 127.52 103.22 127.42 103.12C127.12 102.8 127.15 102.24 127.6 101.99L132.01 99.6C132.13 99.54 132.22 99.45 132.28 99.34C132.37 99.18 132.38 99 132.35 98.83C132.32 98.66 132.24 98.4901 132.07 98.3701L128.67 96.04C128.4 95.86 128.32 95.56 128.37 95.29C128.37 95.27 128.39 95.2499 128.4 95.2299C128.43 95.1199 128.48 95.0099 128.56 94.9299C128.61 94.8799 128.69 94.86 128.75 94.83C128.82 94.8 128.87 94.7399 128.95 94.7299L136.3 93.4999C136.58 93.4599 136.77 93.26 136.85 93.02C136.92 92.82 136.91 92.5901 136.78 92.3901L133.22 86.9899C133.14 86.8699 133.1 86.74 133.11 86.6C133.11 86.47 133.15 86.3399 133.21 86.2299C133.32 86.0399 133.51 85.8901 133.76 85.8701L139.82 85.32L140.27 85.28C140.29 85.28 140.31 85.26 140.33 85.26C140.81 85.17 141.08 84.6399 140.83 84.1999L136.46 76.59C136.35 76.4 136.15 76.2599 135.93 76.2299L124.52 74.8C124.49 74.8 124.47 74.79 124.44 74.79L119.7 74.7499C119.22 74.7399 118.92 74.3001 119 73.8901C119.03 73.7501 119.09 73.62 119.21 73.51L124.97 67.9899C125.01 67.9499 125.03 67.89 125.06 67.84C125.09 67.8 125.13 67.7599 125.15 67.7099C125.26 67.4099 125.16 67.0501 124.87 66.8601L117.05 61.7499C116.97 61.6999 116.91 61.64 116.86 61.57C116.86 61.57 116.86 61.56 116.85 61.56C116.8 61.48 116.76 61.4 116.74 61.31L115.15 54.07C115.12 53.91 115.04 53.7899 114.94 53.6999C114.79 53.5599 114.58 53.49 114.38 53.51C114.18 53.53 113.98 53.63 113.85 53.83L110.85 58.4101L110.81 58.4799C110.74 58.5799 110.65 58.6499 110.55 58.7099C110.33 58.8299 110.05 58.8399 109.83 58.6899L104.76 55.4499C104.66 55.3899 104.56 55.35 104.46 55.34C104.25 55.32 104.04 55.39 103.89 55.53C103.81 55.6 103.75 55.69 103.71 55.79L101.25 62.05C101.03 62.61 100.28 62.6701 99.9699 62.1601L96.19 55.8601C95.87 55.3301 95.08 55.42 94.89 56.01L93.57 60.1799C93.44 60.5999 92.96 60.8001 92.57 60.6101L83.31 56.03C83.22 55.99 83.1299 55.9599 83.0399 55.9599C82.7999 55.9499 82.58 56.06 82.43 56.26C82.41 56.29 82.3799 56.31 82.3599 56.35L79.9 61.01C79.85 61.11 79.79 61.1799 79.71 61.2399C79.6 61.3299 79.45 61.3701 79.31 61.3801C79.16 61.3901 79.01 61.37 78.88 61.29L73.93 58.1601C73.65 57.9801 73.28 58.02 73.05 58.26L69.2299 61.9999C68.9999 62.2299 68.9799 62.6601 69.1099 62.8801C69.9499 64.2301 72.41 68.26 74.59 72.79C74.85 73.32 75.4399 75.1099 75.4799 75.2299C75.4699 75.1999 75.47 75.1701 75.46 75.1301C75.42 74.9601 75.46 74.7901 75.56 74.6701C75.65 74.5501 75.79 74.4699 75.96 74.4699L78.4 74.4399C78.67 74.4299 78.9 74.6301 78.94 74.9001L80.32 84.2499C80.38 84.6299 80.8 84.8301 81.12 84.6301L87.82 80.6101C88.21 80.3801 88.69 80.7001 88.62 81.1401L87.5999 88.2199C87.5499 88.5399 87.8 88.83 88.12 88.83L95.76 88.8901C96.05 88.8901 96.2899 89.1301 96.2899 89.4201L96.3499 97.08C96.3499 97.4 96.64 97.6501 96.96 97.6101L104.02 96.59C104.47 96.53 104.79 97.0101 104.56 97.4001L100.55 104.12C100.35 104.45 100.55 104.87 100.93 104.93L110.25 106.31C110.51 106.35 110.71 106.58 110.71 106.85L110.67 109.3C110.66 109.64 110.34 109.88 110.01 109.8C110.01 109.8 131.24 116.47 135.85 117.68C135.86 117.68 135.87 117.68 135.88 117.68C136.22 117.75 136.58 117.54 136.69 117.18Z" fill="#9D1B2E"/>
<path fill-rule="evenodd" clip-rule="evenodd" d="M59.4202 130.4L73.0602 116.72C76.6602 118.31 81.4802 117.29 88.2902 113.61C95.7002 109.6 101.77 107.85 109.99 109.8C110.32 109.88 110.65 109.64 110.65 109.3L110.69 106.85C110.69 106.58 110.5 106.35 110.23 106.31L100.91 104.93C100.53 104.87 100.33 104.45 100.53 104.12L104.54 97.4001C104.77 97.0101 104.45 96.5301 104 96.5901L96.9402 97.6101C96.6202 97.6601 96.3303 97.4101 96.3303 97.0801L96.2703 89.4202C96.2703 89.1302 96.0302 88.8901 95.7402 88.8901L88.1002 88.8301C87.7802 88.8301 87.5303 88.54 87.5803 88.22L88.6002 81.1401C88.6602 80.6901 88.1802 80.3701 87.7902 80.6101L81.0903 84.6301C80.7603 84.8301 80.3403 84.63 80.2803 84.25L78.9003 74.9001C78.8603 74.6301 78.6302 74.4399 78.3602 74.4399L75.9202 74.47C75.7502 74.47 75.6203 74.5602 75.5203 74.6702C75.4203 74.8002 75.3702 74.9601 75.4202 75.1301C75.4302 75.1601 75.4302 75.19 75.4402 75.23C77.3502 83.43 75.6002 89.4901 71.6202 96.8901C67.8002 104 66.8403 108.94 68.7103 112.6L45.0103 136.37H148.76V130.39H59.4202V130.4Z" fill="#476F55"/>
</svg>
