<svg width="174" height="131" viewBox="0 0 174 131" fill="none" xmlns="http://www.w3.org/2000/svg">
<path fill-rule="evenodd" clip-rule="evenodd" d="M129 103.56C128.59 103.56 128.19 103.48 127.83 103.32C127.46 103.16 127.15 102.95 126.88 102.68C126.61 102.41 126.4 102.1 126.24 101.73C126.08 101.36 126 100.97 126 100.56C126 100.13 126.08 99.73 126.24 99.36C126.4 99 126.61 98.68 126.88 98.41C127.15 98.15 127.46 97.94 127.83 97.79C128.19 97.64 128.59 97.57 129 97.57C129.42 97.57 129.81 97.65 130.17 97.79C130.54 97.94 130.85 98.15 131.12 98.41C131.39 98.68 131.6 98.99 131.76 99.36C131.92 99.73 132 100.12 132 100.56C132 100.98 131.92 101.37 131.76 101.73C131.6 102.09 131.39 102.41 131.12 102.68C130.85 102.95 130.54 103.16 130.17 103.32C129.81 103.48 129.42 103.56 129 103.56ZM134.11 89.98H139.19V91.48C139.49 90.96 139.96 90.52 140.6 90.16C141.24 89.8 142.11 89.61 143.2 89.61C144.61 89.61 145.69 90.01 146.44 90.81C147.19 91.61 147.56 92.79 147.56 94.35V103.2H142.08V95.48C142.08 95.05 141.99 94.7 141.81 94.45C141.63 94.19 141.35 94.06 140.96 94.06C140.48 94.06 140.13 94.19 139.91 94.45C139.69 94.71 139.59 95.05 139.59 95.48V103.2H134.11V89.98V89.98ZM156.04 103.56C154.94 103.56 153.95 103.42 153.05 103.14C152.15 102.86 151.38 102.44 150.73 101.88C150.08 101.32 149.58 100.63 149.22 99.79C148.86 98.95 148.68 97.97 148.68 96.84V96.34C148.68 95.23 148.85 94.25 149.19 93.4C149.53 92.55 150.01 91.85 150.64 91.29C151.26 90.73 152.01 90.31 152.88 90.03C153.75 89.75 154.72 89.61 155.78 89.61C158.21 89.61 160 90.19 161.15 91.34C162.3 92.49 162.88 94.2 162.88 96.46V97.96H154.23C154.3 98.52 154.46 98.94 154.72 99.22C154.97 99.49 155.4 99.62 155.99 99.63H162.59C162.26 100.86 161.62 101.78 160.68 102.42C159.55 103.18 158 103.56 156.04 103.56ZM155.92 93.55C155.35 93.55 154.95 93.69 154.71 93.99C154.47 94.28 154.32 94.64 154.27 95.07H157.46C157.41 94.64 157.27 94.28 157.04 93.99C156.81 93.69 156.43 93.55 155.92 93.55ZM170.37 103.36C169.44 103.36 168.63 103.27 167.95 103.09C167.27 102.91 166.71 102.6 166.28 102.17C165.85 101.74 165.53 101.16 165.32 100.44C165.11 99.72 165.01 98.81 165.01 97.71C165.01 93.35 165.01 91.22 165.01 87H170.49V89.99H172.98V94.38H170.49V96.57C170.49 97 170.51 97.37 170.54 97.68C170.57 97.99 170.64 98.23 170.75 98.42C170.86 98.6 171.02 98.74 171.22 98.82C171.43 98.9 171.71 98.95 172.06 98.95C172.44 98.95 172.83 98.92 173.23 98.87V103.11C172.76 103.19 172.27 103.26 171.75 103.31C171.23 103.34 170.77 103.36 170.37 103.36Z" fill="#00926F"/>
<path fill-rule="evenodd" clip-rule="evenodd" d="M42.9997 11.3491C47.5297 2.88912 60.1998 -3.51088 73.6698 2.13912C84.3798 -0.970876 95.6098 -0.630876 103.2 5.00912L84.9597 4.72912L84.7998 15.3191H86.0197C87.3797 15.3391 88.5998 15.9191 89.4798 16.8191C90.3598 17.7291 90.8897 18.9691 90.8698 20.3391L90.8598 20.3491C90.8398 21.7091 90.2598 22.9291 89.3598 23.8091C88.4498 24.6891 87.2098 25.2191 85.8398 25.1991L84.6398 25.1791L84.4798 35.7391L95.0398 35.8991L95.0598 34.6891C95.0798 33.3291 95.6498 32.0991 96.5598 31.2191C97.4698 30.3391 98.7098 29.7991 100.08 29.8291H100.1C101.46 29.8491 102.68 30.4291 103.56 31.3291C104.44 32.2391 104.97 33.4791 104.96 34.8491L104.95 34.8691V36.0591L114.3 36.1991L115.5 36.2191L115.86 12.6291C132.13 14.8591 140.86 36.4991 125.74 50.7091C125.33 56.0591 122.87 60.3691 119 63.6791L115.01 42.6391L106.97 44.1691C106.45 41.4091 103.78 39.5991 101.02 40.1191C98.2597 40.6391 96.4498 43.2991 96.9698 46.0591L88.2798 47.7091L89.6798 54.9691C92.6198 55.0691 95.3197 56.7891 95.8797 59.7791C96.4397 62.7591 95.4798 65.9991 92.0598 67.3891L92.9398 72.1691C90.3798 72.3091 87.7498 72.3191 85.0898 72.2091L84.7697 70.4091C86.0297 69.9391 87.0898 69.0991 87.8298 68.0291C88.7898 66.6591 89.2398 64.9091 88.9198 63.1291C88.6098 61.3491 87.5998 59.8591 86.2298 58.8891C85.1698 58.1491 83.8897 57.7091 82.5398 57.6991L80.9698 48.7691L71.8398 50.3691C71.3697 49.1091 70.5297 48.0491 69.4597 47.2991C68.1097 46.3591 66.4197 45.9091 64.6797 46.1891L64.5598 46.2091C62.7798 46.5191 61.2897 47.5291 60.3197 48.8991C59.5697 49.9591 59.1397 51.2391 59.1297 52.5891L51.5898 53.9091L50.3997 54.1191L54.0397 74.8891C51.4997 74.7391 46.3297 73.1791 42.8997 69.8791C39.4497 72.4991 33.2498 78.0391 26.6298 87.4091C24.9398 86.9391 21.1598 86.7091 19.4698 87.2391C21.6998 79.2491 24.6997 73.0691 26.5397 68.8391C16.9198 68.1491 15.2298 56.7991 18.6398 52.2991C3.63979 34.7491 20.8998 7.72912 42.9997 11.3491ZM105.94 7.46912L87.3197 7.17912L87.2298 13.0291C88.7798 13.3091 90.1498 14.0691 91.1898 15.1391C92.4998 16.4891 93.2898 18.3291 93.2598 20.3591H93.2697L93.2598 20.3691C93.2298 22.3991 92.3798 24.2291 91.0298 25.5391C89.9498 26.5891 88.5498 27.2991 86.9998 27.5391L86.9097 33.3891L92.7598 33.4791C93.0398 31.9291 93.7998 30.5591 94.8698 29.5091C96.2198 28.1991 98.0598 27.4091 100.09 27.4391V27.4291L100.11 27.4391C102.15 27.4691 103.97 28.3191 105.28 29.6691C106.33 30.7491 107.04 32.1491 107.28 33.6991L113.13 33.7891L113.46 12.4591C112.19 12.4391 110.88 12.5291 109.54 12.7491C108.55 10.7191 107.34 8.96912 105.94 7.46912ZM76.6597 41.0691L74.5598 33.0391L75.5697 32.6591C76.5497 32.2891 77.3298 31.5691 77.7798 30.6891C78.2298 29.8091 78.3798 28.7691 78.1098 27.7391C77.8398 26.7091 77.2097 25.8691 76.3797 25.3291C75.5497 24.7791 74.5198 24.5391 73.4797 24.6891L72.4097 24.8491L70.0197 15.7191L44.6598 22.3391L51.2798 47.6991L56.7998 46.2591C56.9298 44.8191 57.5098 43.5791 58.3098 42.5591C59.5098 41.0391 61.2397 40.0191 62.7097 39.6291C64.1797 39.2491 66.2897 39.2691 68.1497 39.9991C69.3797 40.4891 70.5198 41.2791 71.3398 42.4591L76.6597 41.0691ZM77.4198 34.4391C78.5098 33.7991 79.3698 32.8691 79.9398 31.7891C80.6498 30.3991 80.8797 28.7591 80.4597 27.1291C80.0297 25.4991 79.0298 24.1691 77.7198 23.3091C76.6998 22.6291 75.4897 22.2491 74.2297 22.2191L71.7597 12.7691L41.7398 20.6091L49.5797 50.6291L59.2597 48.0991L59.2097 47.1191C59.1497 45.9091 59.5797 44.8691 60.2297 44.0391C61.0898 42.9491 62.3098 42.2191 63.3398 41.9491C64.3998 41.6691 65.9197 41.6991 67.2897 42.2391C68.2897 42.6291 69.1798 43.3091 69.6898 44.3691L70.1197 45.2591L79.5898 42.7891L77.4198 34.4391ZM82.5997 72.0691L81.9798 68.5591L83.1698 68.3491C84.2998 68.1491 85.2397 67.5191 85.8497 66.6491C86.4597 65.7791 86.7298 64.6791 86.5398 63.5591C86.3398 62.4291 85.7098 61.4891 84.8398 60.8791C83.9698 60.2691 82.8697 59.9991 81.7397 60.1891L80.5498 60.3991L78.9998 51.5791L69.7498 53.1991V51.8591C69.5298 50.7791 68.9097 49.8691 68.0697 49.2791C67.1997 48.6691 66.0997 48.3991 64.9797 48.5891L64.9597 48.5991C63.8397 48.7991 62.9097 49.4291 62.3098 50.2991C61.6998 51.1691 61.4197 52.2691 61.6197 53.3991L61.6398 53.5091V54.6191L60.6398 54.7991L53.1998 56.0991L56.5498 75.1891C60.1898 75.8391 69.7297 75.0291 73.8797 71.0391C76.7897 71.5191 79.7097 71.8691 82.5997 72.0691Z" fill="#FEFEFE"/>
<path fill-rule="evenodd" clip-rule="evenodd" d="M22.36 103.94C21.26 103.94 20.27 103.8 19.37 103.52C18.47 103.24 17.7 102.82 17.05 102.26C16.4 101.7 15.9 101.01 15.54 100.17C15.18 99.33 15 98.35 15 97.22V96.72C15 95.61 15.17 94.63 15.51 93.78C15.85 92.93 16.33 92.23 16.96 91.68C17.58 91.12 18.33 90.7 19.2 90.42C20.07 90.14 21.04 90 22.1 90C24.52 90 26.32 90.58 27.47 91.73C28.62 92.88 29.2 94.59 29.2 96.85V98.34H20.55C20.62 98.91 20.78 99.33 21.04 99.6C21.25 99.83 21.59 99.96 22.05 100V100.01H22.15C22.22 100.01 22.28 100.02 22.36 100.02C22.43 100.02 22.5 100.02 22.56 100.01H28.92C28.59 101.24 27.95 102.17 27 102.81C25.87 103.56 24.32 103.94 22.36 103.94ZM22.23 93.92C21.67 93.92 21.26 94.07 21.02 94.36C20.78 94.65 20.63 95.01 20.58 95.44H23.77C23.72 95.01 23.58 94.65 23.35 94.36C23.12 94.07 22.75 93.92 22.23 93.92ZM30.46 90.36H37.49L39.26 95.34L41.03 90.36H47.91V103.57H42.93V96.47L40.94 101.33H37.45L35.46 96.47V103.57H30.48V90.36H30.46ZM56.5 103.94C55.4 103.94 54.41 103.8 53.51 103.52C52.61 103.24 51.84 102.82 51.19 102.26C50.54 101.7 50.04 101.01 49.68 100.17C49.32 99.33 49.14 98.35 49.14 97.22V96.72C49.14 95.61 49.31 94.63 49.65 93.78C49.99 92.93 50.47 92.23 51.1 91.68C51.72 91.12 52.47 90.7 53.34 90.42C54.21 90.14 55.18 90 56.24 90C58.67 90 60.46 90.58 61.61 91.73C62.76 92.88 63.34 94.59 63.34 96.85V98.34H54.69C54.76 98.91 54.92 99.33 55.18 99.6C55.44 99.87 55.87 100.01 56.49 100.01C56.56 100.01 56.63 100.01 56.69 100H63.05C62.72 101.23 62.08 102.16 61.14 102.8C60 103.56 58.46 103.94 56.5 103.94ZM56.37 93.92C55.8 93.92 55.4 94.07 55.16 94.36C54.92 94.65 54.77 95.01 54.72 95.44H57.91C57.86 95.01 57.72 94.65 57.49 94.36C57.26 94.07 56.89 93.92 56.37 93.92ZM64.59 90.36H70.07V94.65H72.81V90.36H78.29V103.57H72.81V99.03H70.07V103.57H64.59V90.36ZM90.26 103.57H80.04V90.36H85.52V99.18H87.76V90.36H93.24V99.18H94.73V106.68H90.25V103.57H90.26ZM95.99 90.36H101.47V95.84L105.08 90.36H109.69V103.57H104.21V98.09L100.6 103.57H95.99V90.36ZM113.41 98.93C112.68 98.53 112.15 98.01 111.82 97.37C111.49 96.73 111.32 95.99 111.32 95.16C111.32 94.45 111.43 93.79 111.66 93.2C111.88 92.61 112.23 92.1 112.69 91.68C113.16 91.26 113.75 90.93 114.47 90.7C115.19 90.47 116.05 90.35 117.05 90.35H124.53V103.56H119.05V99.72H118.53L116.76 103.56H110.83L113.41 98.93ZM116.8 95.17C116.8 95.5 116.91 95.74 117.14 95.88C117.36 96.02 117.63 96.09 117.93 96.09H119.05V94.25H117.93C117.63 94.25 117.37 94.32 117.14 94.45C116.91 94.58 116.8 94.82 116.8 95.17Z" fill="#FEFEFE"/>
<path d="M1.64008 101.11L2.44135 100.12C3.34277 98.952 3.85608 97.1992 3.98127 94.8622L4.19411 89.4537H12.9204V101.11H14.6606V106.981H12.3445V103H2.89206V106.981H0.575907L0.588427 101.11H1.64008ZM4.3819 101.11H10.6042V91.5945H6.43514L6.29742 94.8246C6.15553 97.5205 5.51703 99.6155 4.3819 101.11Z" fill="#FEFEFE"/>
<path fill-rule="evenodd" clip-rule="evenodd" d="M130 76.5205L155.72 80.5705L159.77 54.8505L152.03 53.6305C152.45 50.9705 150.63 48.4805 147.98 48.0605C145.32 47.6405 142.83 49.4505 142.41 52.1105L134.04 50.7905L132.79 58.8705C135.41 59.9105 136.62 62.5105 136.23 64.6605C135.83 66.8105 134.27 68.2705 131.3 68.5205L130 76.5205Z" fill="#00926F"/>
<path fill-rule="evenodd" clip-rule="evenodd" d="M153.03 113.05H155.86V116.52H155.26V113.56H153.62V116.52H153.02V113.05H153.03ZM156.9 113.05H158.16C158.63 113.05 158.97 113.15 159.19 113.35C159.41 113.55 159.52 113.82 159.52 114.16C159.52 114.5 159.41 114.77 159.19 114.97C158.97 115.17 158.62 115.27 158.16 115.27H157.49V116.53H156.89V113.05H156.9ZM158.12 114.75C158.28 114.75 158.41 114.74 158.51 114.71C158.62 114.68 158.7 114.65 158.76 114.6C158.82 114.55 158.87 114.49 158.89 114.42C158.92 114.35 158.93 114.26 158.93 114.16C158.93 114.06 158.92 113.97 158.89 113.9C158.86 113.83 158.82 113.77 158.76 113.72C158.7 113.67 158.61 113.63 158.51 113.61C158.4 113.59 158.27 113.57 158.12 113.57H157.5V114.75H158.12ZM161.74 116.58C161.53 116.58 161.33 116.55 161.14 116.48C160.95 116.41 160.78 116.31 160.63 116.17C160.48 116.03 160.37 115.85 160.28 115.62C160.19 115.4 160.15 115.13 160.15 114.81V114.71C160.15 114.41 160.19 114.15 160.28 113.93C160.37 113.71 160.48 113.54 160.63 113.4C160.78 113.26 160.94 113.16 161.14 113.1C161.33 113.04 161.53 113 161.74 113C161.95 113 162.15 113.03 162.35 113.1C162.54 113.16 162.71 113.27 162.86 113.4C163 113.54 163.12 113.72 163.21 113.93C163.3 114.15 163.34 114.41 163.34 114.71V114.81C163.34 115.13 163.3 115.4 163.21 115.62C163.12 115.84 163.01 116.03 162.86 116.17C162.71 116.31 162.54 116.41 162.35 116.48C162.15 116.55 161.95 116.58 161.74 116.58ZM161.74 116.06C161.86 116.06 161.98 116.04 162.1 115.99C162.22 115.95 162.32 115.88 162.41 115.78C162.5 115.68 162.57 115.55 162.63 115.4C162.68 115.24 162.71 115.05 162.71 114.82V114.72C162.71 114.5 162.68 114.32 162.63 114.17C162.58 114.02 162.5 113.9 162.41 113.8C162.32 113.71 162.22 113.64 162.1 113.59C161.98 113.55 161.86 113.52 161.74 113.52C161.61 113.52 161.49 113.54 161.38 113.59C161.26 113.63 161.16 113.7 161.07 113.8C160.98 113.89 160.91 114.02 160.86 114.17C160.81 114.32 160.78 114.51 160.78 114.72V114.82C160.78 115.05 160.81 115.24 160.86 115.4C160.91 115.56 160.98 115.69 161.07 115.78C161.16 115.88 161.26 115.95 161.38 115.99C161.49 116.04 161.61 116.06 161.74 116.06ZM164.19 113.05H166.52V113.57H164.78V114.48H166.37V115H164.78V116.01H166.52V116.53H164.19V113.05ZM167.39 113.05H167.99V114.5H168.34L169.6 113.05H170.27L168.81 114.7L170.32 116.52H169.6L168.34 114.97H167.99V116.52H167.39V113.05ZM171.9 113.57H170.73V113.05H173.66V113.57H172.49V116.53H171.89V113.57H171.9ZM90 119.86H92.36V120.38H90.6V121.17H91.32C91.55 121.17 91.75 121.2 91.93 121.25C92.1 121.3 92.24 121.37 92.36 121.47C92.47 121.56 92.56 121.68 92.61 121.81C92.66 121.94 92.69 122.09 92.69 122.25C92.69 122.41 92.66 122.56 92.61 122.69C92.56 122.82 92.47 122.94 92.36 123.03C92.25 123.12 92.1 123.2 91.93 123.25C91.76 123.3 91.56 123.33 91.32 123.33H90V119.86ZM91.26 122.82C91.42 122.82 91.55 122.81 91.65 122.78C91.76 122.76 91.84 122.72 91.9 122.67C91.96 122.62 92.01 122.56 92.03 122.49C92.06 122.42 92.07 122.34 92.07 122.24C92.07 122.15 92.06 122.07 92.03 122C92 121.93 91.96 121.87 91.9 121.83C91.84 121.78 91.75 121.75 91.65 121.72C91.54 121.7 91.41 121.68 91.26 121.68H90.59V122.81H91.26V122.82ZM93.32 123.39C93.29 123.39 93.26 123.39 93.23 123.39C93.2 123.39 93.17 123.38 93.14 123.38V122.81C93.16 122.81 93.18 122.81 93.21 122.81C93.3 122.81 93.38 122.79 93.44 122.74C93.5 122.7 93.55 122.6 93.59 122.46C93.63 122.32 93.66 122.11 93.67 121.84C93.69 121.57 93.7 121.21 93.7 120.75V119.86H96.13V123.33H95.53V120.37H94.27V120.85C94.27 121.39 94.25 121.83 94.21 122.16C94.17 122.49 94.11 122.75 94.03 122.93C93.95 123.11 93.85 123.23 93.73 123.3C93.62 123.36 93.48 123.39 93.32 123.39ZM99.11 122.55H97.7L97.41 123.33H96.81L98.13 119.86H98.73L100.05 123.33H99.41L99.11 122.55ZM97.9 122.03H98.92L98.41 120.6L97.9 122.03ZM100.71 119.86H102.94V120.38H101.3V123.34H100.7V119.86H100.71ZM104.94 123.39C104.73 123.39 104.53 123.36 104.33 123.29C104.14 123.22 103.97 123.12 103.82 122.98C103.67 122.84 103.56 122.66 103.47 122.43C103.38 122.21 103.34 121.94 103.34 121.62V121.52C103.34 121.22 103.38 120.96 103.47 120.74C103.56 120.52 103.67 120.34 103.82 120.21C103.97 120.07 104.14 119.97 104.33 119.9C104.52 119.84 104.72 119.8 104.94 119.8C105.15 119.8 105.35 119.83 105.54 119.9C105.73 119.96 105.9 120.07 106.05 120.21C106.2 120.35 106.31 120.53 106.4 120.74C106.49 120.96 106.53 121.22 106.53 121.52V121.62C106.53 121.94 106.49 122.21 106.4 122.43C106.31 122.65 106.2 122.84 106.05 122.98C105.9 123.12 105.74 123.22 105.54 123.29C105.36 123.35 105.16 123.39 104.94 123.39ZM104.94 122.86C105.06 122.86 105.18 122.84 105.3 122.79C105.42 122.75 105.52 122.68 105.61 122.58C105.7 122.48 105.77 122.35 105.83 122.19C105.88 122.03 105.91 121.84 105.91 121.61V121.51C105.91 121.29 105.88 121.11 105.83 120.96C105.77 120.81 105.7 120.69 105.61 120.59C105.52 120.5 105.42 120.43 105.3 120.38C105.18 120.34 105.06 120.31 104.94 120.31C104.81 120.31 104.69 120.33 104.58 120.38C104.46 120.42 104.36 120.49 104.27 120.59C104.18 120.68 104.11 120.81 104.06 120.96C104.01 121.11 103.98 121.3 103.98 121.51V121.61C103.98 121.84 104.01 122.03 104.06 122.19C104.11 122.35 104.18 122.48 104.27 122.58C104.36 122.68 104.46 122.75 104.58 122.79C104.7 122.84 104.82 122.86 104.94 122.86ZM108.12 120.38H106.95V119.86H109.88V120.38H108.71V123.34H108.11V120.38H108.12ZM110.57 119.86H111.96C112.35 119.86 112.64 119.94 112.83 120.11C113.01 120.28 113.11 120.5 113.11 120.79C113.11 120.97 113.06 121.12 112.97 121.25C112.88 121.38 112.75 121.47 112.59 121.53C112.8 121.58 112.96 121.67 113.08 121.81C113.2 121.95 113.26 122.13 113.26 122.36C113.26 122.51 113.24 122.64 113.19 122.76C113.14 122.88 113.07 122.98 112.97 123.07C112.87 123.16 112.75 123.22 112.6 123.27C112.45 123.32 112.26 123.34 112.05 123.34H110.58V119.86H110.57ZM111.97 122.82C112.23 122.82 112.41 122.78 112.5 122.7C112.6 122.62 112.65 122.49 112.65 122.32C112.65 122.24 112.64 122.16 112.62 122.1C112.6 122.03 112.56 121.98 112.51 121.93C112.46 121.89 112.39 121.85 112.3 121.83C112.21 121.81 112.11 121.79 111.98 121.79H111.18V122.82H111.97ZM111.88 121.31C112.11 121.31 112.27 121.27 112.36 121.18C112.45 121.1 112.5 120.98 112.5 120.83C112.5 120.68 112.46 120.57 112.37 120.49C112.28 120.41 112.12 120.37 111.88 120.37H111.16V121.3H111.88V121.31ZM115.45 123.39C115.24 123.39 115.04 123.36 114.84 123.29C114.65 123.22 114.48 123.12 114.33 122.98C114.18 122.84 114.07 122.66 113.98 122.43C113.89 122.21 113.85 121.94 113.85 121.62V121.52C113.85 121.22 113.89 120.96 113.98 120.74C114.06 120.52 114.18 120.34 114.33 120.21C114.48 120.07 114.64 119.97 114.84 119.9C115.03 119.84 115.23 119.8 115.45 119.8C115.66 119.8 115.86 119.83 116.06 119.9C116.25 119.96 116.42 120.07 116.57 120.21C116.72 120.35 116.83 120.53 116.92 120.74C117.01 120.96 117.05 121.22 117.05 121.52V121.62C117.05 121.94 117.01 122.21 116.92 122.43C116.83 122.65 116.72 122.84 116.57 122.98C116.42 123.12 116.26 123.22 116.06 123.29C115.87 123.35 115.67 123.39 115.45 123.39ZM115.45 122.86C115.57 122.86 115.69 122.84 115.81 122.79C115.93 122.75 116.03 122.68 116.12 122.58C116.21 122.48 116.28 122.35 116.34 122.19C116.39 122.03 116.42 121.84 116.42 121.61V121.51C116.42 121.29 116.39 121.11 116.34 120.96C116.29 120.81 116.21 120.69 116.12 120.59C116.03 120.5 115.93 120.43 115.81 120.38C115.69 120.34 115.57 120.31 115.45 120.31C115.32 120.31 115.2 120.33 115.09 120.38C114.97 120.42 114.87 120.49 114.78 120.59C114.69 120.68 114.62 120.81 114.57 120.96C114.52 121.11 114.49 121.3 114.49 121.51V121.61C114.49 121.84 114.52 122.03 114.57 122.19C114.62 122.35 114.69 122.48 114.78 122.58C114.87 122.68 114.97 122.75 115.09 122.79C115.21 122.84 115.33 122.86 115.45 122.86ZM117.91 119.86H119.17C119.64 119.86 119.98 119.96 120.2 120.16C120.42 120.36 120.53 120.63 120.53 120.97C120.53 121.31 120.42 121.58 120.2 121.78C119.98 121.98 119.63 122.08 119.17 122.08H118.5V123.34H117.91V119.86ZM119.12 121.56C119.28 121.56 119.41 121.55 119.51 121.52C119.62 121.49 119.7 121.46 119.76 121.41C119.82 121.36 119.87 121.3 119.89 121.23C119.92 121.16 119.93 121.07 119.93 120.97C119.93 120.87 119.92 120.78 119.89 120.71C119.86 120.64 119.82 120.58 119.76 120.53C119.7 120.48 119.61 120.44 119.51 120.42C119.4 120.4 119.27 120.38 119.12 120.38H118.5V121.56H119.12ZM121.33 119.86H121.93V122.39L123.64 119.86H124.22V123.33H123.62V120.8L121.91 123.33H121.33V119.86ZM126.06 120.38H124.89V119.86H127.82V120.38H126.65V123.34H126.05V120.38H126.06ZM128.52 119.86H130.85V120.38H129.11V121.29H130.7V121.81H129.11V122.82H130.85V123.34H128.52V119.86ZM131.56 123.39C131.53 123.39 131.5 123.39 131.47 123.39C131.44 123.39 131.41 123.38 131.38 123.38V122.81C131.4 122.81 131.42 122.81 131.45 122.81C131.54 122.81 131.62 122.79 131.68 122.74C131.74 122.7 131.79 122.6 131.83 122.46C131.87 122.32 131.9 122.11 131.92 121.84C131.94 121.57 131.94 121.21 131.94 120.75V119.86H134.37V123.33H133.77V120.37H132.51V120.85C132.51 121.39 132.49 121.83 132.45 122.16C132.41 122.49 132.35 122.75 132.27 122.93C132.19 123.11 132.09 123.23 131.97 123.3C131.87 123.36 131.73 123.39 131.56 123.39ZM135.43 119.86H136.03V121.17H136.7C136.93 121.17 137.13 121.2 137.31 121.25C137.48 121.3 137.62 121.37 137.74 121.47C137.85 121.56 137.94 121.68 137.99 121.81C138.04 121.94 138.07 122.09 138.07 122.25C138.07 122.41 138.04 122.56 137.99 122.69C137.94 122.82 137.85 122.94 137.74 123.03C137.63 123.12 137.49 123.2 137.31 123.25C137.14 123.3 136.94 123.33 136.7 123.33H135.44V119.86H135.43ZM136.65 122.82C136.81 122.82 136.94 122.81 137.04 122.78C137.15 122.76 137.23 122.72 137.29 122.67C137.35 122.62 137.4 122.56 137.42 122.49C137.45 122.42 137.46 122.34 137.46 122.24C137.46 122.15 137.45 122.07 137.42 121.99C137.39 121.92 137.35 121.86 137.29 121.81C137.23 121.76 137.14 121.73 137.04 121.7C136.94 121.68 136.8 121.66 136.65 121.66H136.03V122.79H136.65V122.82ZM138.85 119.86H139.45V121.29H141.14V119.86H141.74V123.33H141.14V121.8H139.45V123.33H138.85V119.86ZM144.18 123.39C143.97 123.39 143.77 123.36 143.57 123.29C143.38 123.22 143.21 123.12 143.06 122.98C142.91 122.84 142.8 122.66 142.71 122.43C142.63 122.21 142.58 121.94 142.58 121.62V121.52C142.58 121.22 142.62 120.96 142.71 120.74C142.8 120.52 142.91 120.34 143.06 120.21C143.21 120.07 143.38 119.97 143.57 119.9C143.76 119.84 143.96 119.8 144.18 119.8C144.39 119.8 144.59 119.83 144.78 119.9C144.97 119.96 145.14 120.07 145.29 120.21C145.44 120.35 145.55 120.53 145.64 120.74C145.73 120.96 145.77 121.22 145.77 121.52V121.62C145.77 121.94 145.73 122.21 145.64 122.43C145.55 122.65 145.44 122.84 145.29 122.98C145.14 123.12 144.98 123.22 144.78 123.29C144.6 123.35 144.39 123.39 144.18 123.39ZM144.18 122.86C144.3 122.86 144.42 122.84 144.54 122.79C144.66 122.75 144.76 122.68 144.85 122.58C144.94 122.48 145.01 122.35 145.07 122.19C145.12 122.03 145.15 121.84 145.15 121.61V121.51C145.15 121.29 145.12 121.11 145.07 120.96C145.01 120.81 144.94 120.69 144.85 120.59C144.76 120.5 144.66 120.43 144.54 120.38C144.42 120.34 144.3 120.31 144.18 120.31C144.05 120.31 143.93 120.33 143.82 120.38C143.7 120.42 143.6 120.49 143.51 120.59C143.42 120.68 143.35 120.81 143.3 120.96C143.25 121.11 143.22 121.3 143.22 121.51V121.61C143.22 121.84 143.25 122.03 143.3 122.19C143.35 122.35 143.42 122.48 143.51 122.58C143.6 122.68 143.7 122.75 143.82 122.79C143.94 122.84 144.06 122.86 144.18 122.86ZM146.64 119.86H148.87V120.38H147.23V123.34H146.63V119.86H146.64ZM150.88 123.39C150.67 123.39 150.47 123.36 150.27 123.29C150.08 123.22 149.91 123.12 149.76 122.98C149.61 122.84 149.5 122.66 149.41 122.43C149.33 122.21 149.28 121.94 149.28 121.62V121.52C149.28 121.22 149.32 120.96 149.41 120.74C149.5 120.52 149.61 120.34 149.76 120.21C149.91 120.07 150.08 119.97 150.27 119.9C150.46 119.84 150.66 119.8 150.88 119.8C151.09 119.8 151.29 119.83 151.48 119.9C151.67 119.96 151.84 120.07 151.99 120.21C152.14 120.35 152.25 120.53 152.34 120.74C152.43 120.96 152.47 121.22 152.47 121.52V121.62C152.47 121.94 152.43 122.21 152.34 122.43C152.25 122.65 152.14 122.84 151.99 122.98C151.84 123.12 151.68 123.22 151.48 123.29C151.29 123.35 151.09 123.39 150.88 123.39ZM150.88 122.86C151 122.86 151.12 122.84 151.24 122.79C151.36 122.75 151.46 122.68 151.55 122.58C151.64 122.48 151.71 122.35 151.77 122.19C151.82 122.03 151.85 121.84 151.85 121.61V121.51C151.85 121.29 151.82 121.11 151.77 120.96C151.71 120.81 151.64 120.69 151.55 120.59C151.46 120.5 151.36 120.43 151.24 120.38C151.12 120.34 151.01 120.31 150.88 120.31C150.75 120.31 150.63 120.33 150.52 120.38C150.4 120.42 150.3 120.49 150.21 120.59C150.12 120.68 150.05 120.81 150 120.96C149.95 121.11 149.92 121.3 149.92 121.51V121.61C149.92 121.84 149.95 122.03 150 122.19C150.05 122.35 150.12 122.48 150.21 122.58C150.3 122.68 150.4 122.75 150.52 122.79C150.63 122.84 150.75 122.86 150.88 122.86ZM156.01 123.15C155.74 123.15 155.51 123.11 155.31 123.04C155.11 122.97 154.94 122.86 154.8 122.72C154.66 122.58 154.56 122.42 154.48 122.23C154.41 122.04 154.37 121.83 154.37 121.6V121.5C154.37 121.28 154.41 121.08 154.48 120.9C154.55 120.72 154.66 120.57 154.8 120.44C154.94 120.31 155.11 120.22 155.31 120.15C155.51 120.08 155.75 120.05 156.01 120.05V119.72H156.61V120.05C156.87 120.05 157.1 120.09 157.31 120.15C157.51 120.22 157.68 120.32 157.82 120.44C157.96 120.57 158.06 120.72 158.14 120.9C158.21 121.08 158.25 121.28 158.25 121.5V121.6C158.25 121.83 158.21 122.04 158.14 122.23C158.07 122.42 157.96 122.58 157.82 122.72C157.68 122.86 157.51 122.96 157.31 123.04C157.11 123.11 156.87 123.15 156.61 123.15V123.48H156.01V123.15ZM157.62 121.5C157.62 121.2 157.53 120.97 157.37 120.81C157.2 120.65 156.95 120.57 156.61 120.57V122.62C156.95 122.62 157.2 122.53 157.37 122.35C157.54 122.17 157.62 121.92 157.62 121.59V121.5ZM154.99 121.6C154.99 121.93 155.07 122.18 155.24 122.36C155.41 122.54 155.66 122.63 156 122.63V120.58C155.66 120.58 155.4 120.66 155.24 120.82C155.07 120.98 154.99 121.21 154.99 121.51V121.6ZM160.5 123.39C160.29 123.39 160.09 123.36 159.89 123.29C159.7 123.22 159.53 123.12 159.38 122.98C159.23 122.84 159.12 122.66 159.03 122.43C158.94 122.21 158.9 121.94 158.9 121.62V121.52C158.9 121.22 158.94 120.96 159.03 120.74C159.12 120.52 159.23 120.34 159.38 120.21C159.52 120.07 159.69 119.97 159.89 119.9C160.08 119.84 160.28 119.8 160.5 119.8C160.71 119.8 160.91 119.83 161.1 119.9C161.29 119.96 161.46 120.07 161.61 120.21C161.76 120.35 161.87 120.53 161.96 120.74C162.05 120.96 162.09 121.22 162.09 121.52V121.62C162.09 121.94 162.05 122.21 161.96 122.43C161.87 122.65 161.76 122.84 161.61 122.98C161.47 123.12 161.3 123.22 161.1 123.29C160.91 123.35 160.71 123.39 160.5 123.39ZM160.5 122.86C160.62 122.86 160.74 122.84 160.86 122.79C160.98 122.75 161.08 122.68 161.17 122.58C161.26 122.48 161.33 122.35 161.39 122.19C161.44 122.03 161.47 121.84 161.47 121.61V121.51C161.47 121.29 161.44 121.11 161.39 120.96C161.33 120.81 161.26 120.69 161.17 120.59C161.08 120.5 160.98 120.43 160.86 120.38C160.74 120.34 160.62 120.31 160.5 120.31C160.37 120.31 160.25 120.33 160.14 120.38C160.02 120.42 159.92 120.49 159.83 120.59C159.74 120.68 159.67 120.81 159.62 120.96C159.57 121.11 159.54 121.3 159.54 121.51V121.61C159.54 121.84 159.57 122.03 159.62 122.19C159.67 122.35 159.74 122.48 159.83 122.58C159.92 122.68 160.02 122.75 160.14 122.79C160.25 122.84 160.37 122.86 160.5 122.86ZM162.95 119.86H163.55V121.29H165.24V119.86H165.84V123.33H165.24V121.8H163.55V123.33H162.95V119.86ZM166.52 122.82H166.89C166.95 122.7 167 122.55 167.04 122.38C167.08 122.21 167.11 122.02 167.13 121.82C167.15 121.62 167.17 121.42 167.17 121.21C167.18 121 167.18 120.8 167.18 120.61V119.87H169.53V122.83H169.93V123.99H169.38V123.35H167.05V123.99H166.5V122.82H166.52ZM168.94 122.82V120.38H167.76V120.71C167.76 121.19 167.74 121.59 167.69 121.94C167.64 122.28 167.58 122.58 167.49 122.83H168.94V122.82ZM172.76 122.55H171.35L171.06 123.33H170.46L171.77 119.86H172.37L173.68 123.33H173.04L172.76 122.55ZM171.54 122.03H172.56L172.05 120.6L171.54 122.03ZM111.26 129V128.54L112.35 127.6V128.19L111.68 128.75L112.35 129.31V129.93L111.26 129ZM112.43 129V128.54L113.52 127.6V128.19L112.85 128.75L113.52 129.31V129.93L112.43 129ZM114.39 126.66H117.22V130.13H116.62V127.17H114.98V130.13H114.38V126.66H114.39ZM120.18 129.35H118.77L118.48 130.13H117.88L119.2 126.66H119.8L121.12 130.13H120.48L120.18 129.35ZM118.96 128.84H119.98L119.47 127.41L118.96 128.84ZM121.77 126.66H122.39L123.5 128.72L124.61 126.66H125.21V130.13H124.61V127.7L123.69 129.41H123.29L122.37 127.7V130.13H121.77V126.66ZM126.86 128.74C126.6 128.66 126.41 128.54 126.28 128.37C126.15 128.2 126.09 127.99 126.09 127.75C126.09 127.59 126.12 127.45 126.17 127.31C126.23 127.18 126.31 127.06 126.42 126.97C126.53 126.87 126.67 126.8 126.83 126.75C126.99 126.7 127.19 126.67 127.4 126.67H128.71V130.14H128.11V128.81H127.38L126.61 130.14H125.97L126.86 128.74ZM126.68 127.75C126.68 127.93 126.74 128.07 126.86 128.17C126.98 128.27 127.19 128.32 127.5 128.32H128.12V127.19H127.5C127.2 127.19 126.98 127.24 126.86 127.34C126.74 127.43 126.68 127.57 126.68 127.75ZM130.57 127.18H129.4V126.66H132.33V127.18H131.16V130.14H130.56V127.18H130.57ZM133.03 126.66H133.63V127.97H134.3C134.53 127.97 134.73 128 134.9 128.05C135.07 128.1 135.22 128.17 135.33 128.27C135.44 128.36 135.53 128.48 135.58 128.61C135.63 128.74 135.66 128.89 135.66 129.05C135.66 129.21 135.63 129.36 135.58 129.49C135.53 129.62 135.44 129.74 135.33 129.83C135.22 129.92 135.07 130 134.9 130.05C134.73 130.1 134.53 130.13 134.3 130.13H133.03V126.66ZM134.24 129.62C134.4 129.62 134.53 129.61 134.63 129.58C134.74 129.56 134.82 129.52 134.88 129.47C134.94 129.42 134.99 129.37 135.01 129.29C135.04 129.22 135.05 129.14 135.05 129.04C135.05 128.95 135.04 128.87 135.01 128.79C134.98 128.72 134.94 128.66 134.88 128.61C134.82 128.56 134.73 128.53 134.63 128.5C134.52 128.47 134.39 128.46 134.24 128.46H133.62V129.59H134.24V129.62ZM137.69 126.66H140.52V130.13H139.92V127.17H138.28V130.13H137.68V126.66H137.69ZM142.97 130.19C142.76 130.19 142.56 130.16 142.37 130.09C142.18 130.02 142.01 129.92 141.86 129.78C141.71 129.64 141.6 129.46 141.51 129.23C141.42 129.01 141.38 128.74 141.38 128.42V128.32C141.38 128.02 141.42 127.76 141.51 127.54C141.6 127.32 141.71 127.14 141.86 127.01C142.01 126.87 142.17 126.77 142.37 126.7C142.56 126.64 142.76 126.6 142.97 126.6C143.18 126.6 143.38 126.63 143.58 126.7C143.77 126.77 143.94 126.87 144.09 127.01C144.23 127.15 144.35 127.33 144.44 127.54C144.53 127.76 144.57 128.02 144.57 128.32V128.42C144.57 128.74 144.53 129.01 144.44 129.23C144.35 129.45 144.24 129.64 144.09 129.78C143.94 129.92 143.78 130.02 143.58 130.09C143.38 130.16 143.18 130.19 142.97 130.19ZM142.97 129.67C143.09 129.67 143.21 129.65 143.33 129.61C143.45 129.57 143.55 129.5 143.64 129.4C143.73 129.3 143.8 129.17 143.85 129.02C143.91 128.86 143.93 128.67 143.93 128.44V128.34C143.93 128.12 143.9 127.94 143.85 127.79C143.8 127.64 143.72 127.52 143.64 127.42C143.55 127.33 143.45 127.26 143.33 127.21C143.21 127.17 143.09 127.15 142.97 127.15C142.84 127.15 142.72 127.17 142.61 127.21C142.49 127.25 142.39 127.32 142.3 127.42C142.21 127.51 142.14 127.64 142.09 127.79C142.04 127.94 142.01 128.12 142.01 128.34V128.44C142.01 128.67 142.04 128.86 142.09 129.02C142.14 129.18 142.21 129.31 142.3 129.4C142.39 129.5 142.49 129.57 142.61 129.61C142.72 129.64 142.84 129.67 142.97 129.67ZM145.42 126.66H146.02V128.11H146.37L147.63 126.66H148.3L146.84 128.31L148.35 130.13H147.63L146.37 128.58H146.02V130.13H145.42V126.66ZM150.38 130.19C150.17 130.19 149.97 130.16 149.77 130.09C149.58 130.02 149.41 129.92 149.26 129.78C149.11 129.64 149 129.46 148.91 129.23C148.82 129.01 148.78 128.74 148.78 128.42V128.32C148.78 128.02 148.82 127.76 148.91 127.54C149 127.32 149.11 127.14 149.26 127.01C149.41 126.87 149.57 126.77 149.77 126.7C149.96 126.64 150.16 126.6 150.38 126.6C150.59 126.6 150.79 126.63 150.98 126.7C151.17 126.77 151.34 126.87 151.49 127.01C151.64 127.15 151.75 127.33 151.84 127.54C151.93 127.76 151.97 128.02 151.97 128.32V128.42C151.97 128.74 151.93 129.01 151.84 129.23C151.75 129.45 151.64 129.64 151.49 129.78C151.35 129.92 151.18 130.02 150.98 130.09C150.8 130.16 150.59 130.19 150.38 130.19ZM150.38 129.67C150.5 129.67 150.62 129.65 150.74 129.61C150.86 129.57 150.96 129.5 151.05 129.4C151.14 129.3 151.21 129.17 151.27 129.02C151.32 128.86 151.35 128.67 151.35 128.44V128.34C151.35 128.12 151.32 127.94 151.27 127.79C151.21 127.64 151.14 127.52 151.05 127.42C150.96 127.33 150.86 127.26 150.74 127.21C150.62 127.17 150.5 127.15 150.38 127.15C150.25 127.15 150.13 127.17 150.02 127.21C149.9 127.25 149.8 127.32 149.71 127.42C149.62 127.51 149.55 127.64 149.5 127.79C149.45 127.94 149.42 128.12 149.42 128.34V128.44C149.42 128.67 149.45 128.86 149.5 129.02C149.55 129.18 149.62 129.31 149.71 129.4C149.8 129.5 149.9 129.57 150.02 129.61C150.14 129.64 150.26 129.67 150.38 129.67ZM152.69 130.19C152.66 130.19 152.63 130.19 152.6 130.19C152.57 130.19 152.54 130.18 152.51 130.18V129.61C152.53 129.61 152.55 129.61 152.58 129.61C152.67 129.61 152.75 129.59 152.81 129.54C152.87 129.5 152.92 129.4 152.96 129.26C153 129.12 153.03 128.91 153.04 128.64C153.06 128.37 153.07 128.01 153.07 127.55V126.66H155.5V130.13H154.9V127.17H153.64V127.65C153.64 128.19 153.62 128.63 153.58 128.96C153.54 129.29 153.48 129.55 153.4 129.73C153.32 129.91 153.22 130.03 153.1 130.1C152.99 130.16 152.85 130.19 152.69 130.19ZM156.55 126.66H158.88V127.18H157.14V128.09H158.73V128.61H157.14V129.62H158.88V130.14H156.55V126.66ZM159.75 126.66H160.35V128.09H162.04V126.66H162.64V130.13H162.04V128.6H160.35V130.13H159.75V126.66ZM163.67 126.66H164.27V129.19L165.98 126.66H166.56V130.13H165.96V127.6L164.25 130.13H163.68V126.66H163.67ZM167.58 126.66H168.18V129.19L169.89 126.66H170.47V130.13H169.87V127.6L168.16 130.13H167.59V126.66H167.58ZM169.02 126.44C168.71 126.44 168.49 126.37 168.34 126.24C168.2 126.1 168.12 125.91 168.12 125.65H168.67C168.67 125.8 168.7 125.91 168.76 125.97C168.82 126.03 168.9 126.06 169.02 126.06C169.14 126.06 169.22 126.03 169.28 125.97C169.34 125.91 169.37 125.8 169.37 125.65H169.92C169.92 125.91 169.85 126.1 169.7 126.24C169.56 126.37 169.33 126.44 169.02 126.44ZM172.42 128.54V129L171.33 129.94V129.34L172 128.78L171.33 128.22V127.6L172.42 128.54ZM173.59 128.54V129L172.5 129.94V129.34L173.17 128.78L172.5 128.22V127.6L173.59 128.54Z" fill="#FEFEFE"/>
</svg>
