<svg width="221" height="161" fill="none" xmlns="http://www.w3.org/2000/svg"><path fill-rule="evenodd" clip-rule="evenodd" d="M55.44 21.24C63.71 5.79 86.83-5.89 111.42 4.43c19.54-5.69 40.05-5.06 53.89 5.24l-33.3-.51-.3 19.32h2.23v-.01a9 9 0 0 1 6.31 2.75 9.037 9.037 0 0 1 2.55 6.43l-.01.03h.01a8.94 8.94 0 0 1-2.75 6.31 9.037 9.037 0 0 1-6.43 2.55l-2.19-.03-.29 19.28 19.28.3.03-2.2a9.01 9.01 0 0 1 2.75-6.34 9.037 9.037 0 0 1 6.43-2.55l.03.01V55c2.47.05 4.7 1.09 6.31 2.75a9.037 9.037 0 0 1 2.55 6.43l-.01.03v2.16l17.07.26 2.19.03.66-43.06c29.7 4.07 45.63 43.56 18.04 69.5-.75 9.77-5.23 17.63-12.3 23.68l-7.29-38.41-14.67 2.79c-.96-5.04-5.81-8.35-10.85-7.39a9.285 9.285 0 0 0-7.39 10.85l-15.87 3.01 2.55 13.24c5.37.19 10.29 3.33 11.32 8.77 1.03 5.45-.74 11.35-6.98 13.89l1.6 8.72c-4.68.26-9.48.28-14.34.08l-.58-3.29c2.31-.86 4.23-2.4 5.59-4.33 1.76-2.51 2.56-5.69 2-8.94-.57-3.26-2.41-5.97-4.92-7.73a11.975 11.975 0 0 0-6.74-2.18l-2.86-16.3-16.66 2.92a11.94 11.94 0 0 0-4.33-5.59 11.949 11.949 0 0 0-8.73-2.03l-.21.03c-3.25.57-5.97 2.41-7.73 4.91a11.975 11.975 0 0 0-2.18 6.74l-13.77 2.41-2.17.38 6.65 37.9c-4.64-.27-14.07-3.13-20.34-9.14-6.3 4.78-17.62 14.9-29.69 32-3.08-.86-9.97-1.28-13.08-.3 4.07-14.59 9.56-25.86 12.91-33.59-17.56-1.26-20.65-21.97-14.43-30.19-27.39-32.06 4.11-81.38 44.46-74.77Zm114.87-7.1-33.98-.52-.16 10.67c2.82.51 5.33 1.89 7.24 3.86 2.39 2.46 3.83 5.83 3.79 9.52h.01l-.01.03c-.06 3.71-1.61 7.05-4.07 9.44a13.377 13.377 0 0 1-7.36 3.64l-.16 10.67 10.67.16c.51-2.82 1.89-5.33 3.86-7.24 2.46-2.39 5.83-3.84 9.52-3.79v-.01l.03.01c3.71.06 7.05 1.61 9.44 4.07 1.91 1.97 3.22 4.52 3.64 7.36l10.67.16.6-38.93c-2.32-.04-4.71.13-7.15.53-1.8-3.68-4.02-6.88-6.58-9.63Zm-53.44 61.34-3.83-14.66 1.85-.7a7.549 7.549 0 0 0 4.04-3.61 7.55 7.55 0 0 0 .6-5.39 7.537 7.537 0 0 0-3.15-4.4c-1.51-1-3.39-1.45-5.3-1.16l-1.95.3-4.35-16.67L58.5 41.28l12.09 46.28 10.08-2.63c.24-2.62 1.29-4.89 2.76-6.75 2.19-2.78 5.34-4.64 8.04-5.34 2.69-.7 6.53-.66 9.92.68 2.25.89 4.33 2.33 5.82 4.48l9.66-2.52Zm1.39-12.1c1.99-1.16 3.57-2.86 4.59-4.85 1.31-2.53 1.72-5.53.94-8.51a12 12 0 0 0-4.99-6.97 11.971 11.971 0 0 0-6.37-1.98l-4.5-17.25-54.79 14.31 14.31 54.79 17.67-4.62-.09-1.79c-.11-2.2.67-4.11 1.86-5.62 1.57-1.99 3.8-3.32 5.68-3.81 1.93-.5 4.72-.47 7.22.52 1.82.72 3.45 1.96 4.38 3.89l.79 1.63 17.28-4.51-3.98-15.23Zm9.46 68.68-1.12-6.41 2.17-.38a7.521 7.521 0 0 0 4.89-3.11 7.495 7.495 0 0 0 1.25-5.65 7.521 7.521 0 0 0-3.11-4.89 7.495 7.495 0 0 0-5.65-1.25l-2.17.38-2.82-16.11-16.88 2.96v-2.43a7.571 7.571 0 0 0-3.07-4.7 7.539 7.539 0 0 0-5.65-1.25l-.04.01a7.547 7.547 0 0 0-4.85 3.1 7.495 7.495 0 0 0-1.25 5.65l.03.2v2.03l-1.83.32-13.57 2.38 6.11 34.85c6.65 1.18 24.06-.29 31.64-7.58 5.31.88 10.64 1.51 15.92 1.88Z" fill="#6D097A"/></svg>