<svg width="50" height="24" viewBox="0 0 50 24" fill="none" xmlns="http://www.w3.org/2000/svg">
<path fill-rule="evenodd" clip-rule="evenodd" d="M2.0498 4.10999C0.949805 4.10999 0.0498047 3.20999 0.0498047 2.10999C0.0498047 1.00999 0.949805 0.109985 2.0498 0.109985H47.8798C48.9798 0.109985 49.8798 1.00999 49.8798 2.10999C49.8798 3.20999 48.9798 4.10999 47.8798 4.10999H2.0498Z" fill="#333333"/>
<path fill-rule="evenodd" clip-rule="evenodd" d="M2.0498 14.0499C0.949805 14.0499 0.0498047 13.1499 0.0498047 12.0499C0.0498047 10.9499 0.949805 10.0499 2.0498 10.0499H47.8798C48.9798 10.0499 49.8798 10.9499 49.8798 12.0499C49.8798 13.1499 48.9798 14.0499 47.8798 14.0499H2.0498Z" fill="#333333"/>
<path fill-rule="evenodd" clip-rule="evenodd" d="M2.0498 23.98C0.949805 23.98 0.0498047 23.08 0.0498047 21.98C0.0498047 20.88 0.949805 19.98 2.0498 19.98H47.8798C48.9798 19.98 49.8798 20.88 49.8798 21.98C49.8798 23.08 48.9798 23.98 47.8798 23.98H2.0498Z" fill="#333333"/>
</svg>
