<svg width="16" height="17" fill="none" xmlns="http://www.w3.org/2000/svg"><path fill-rule="evenodd" clip-rule="evenodd" d="M7.63 14.8c3.44 0 6.24-2.8 6.24-6.24 0-3.44-2.8-6.24-6.24-6.24-3.44 0-6.24 2.8-6.24 6.24 0 3.44 2.8 6.24 6.24 6.24Z" fill="#9A34A8"/><path fill-rule="evenodd" clip-rule="evenodd" d="M7.63.99c2.09 0 3.98.85 5.35 2.22l.01.01a7.543 7.543 0 0 1 2.22 5.35c0 2.09-.85 3.98-2.22 5.35v.01a7.549 7.549 0 0 1-5.36 2.22c-2.09 0-3.99-.85-5.36-2.22A7.548 7.548 0 0 1 .05 8.57c0-2.09.85-3.99 2.22-5.35h.01A7.51 7.51 0 0 1 7.63.99Zm3.47 4.1a4.899 4.899 0 0 0-3.47-1.44c-1.36 0-2.59.55-3.47 1.44a4.89 4.89 0 0 0-1.43 3.47c0 1.35.55 2.58 1.44 3.47a4.899 4.899 0 0 0 6.94 0 4.88 4.88 0 0 0 1.44-3.47 5.036 5.036 0 0 0-1.45-3.47Z" fill="#FEFEFE"/></svg>